<svg fill="none" width="100%" height="100%" viewBox="0 0 18 16" xmlns="http://www.w3.org/2000/svg">
  <path fill-rule="evenodd" clip-rule="evenodd" d="M2.04432 14.9819H14.061C15.2898 14.9819 16.0558 13.6875 15.4414 12.6566L9.43305 2.57263C8.81865 1.54175 7.28665 1.54175 6.67225 2.57263L0.66392 12.6566C0.0495223 13.6875 0.815525 14.9819 2.04432 14.9819ZM8.05265 9.55625C7.6138 9.55625 7.25473 9.20746 7.25473 8.78115V7.23096C7.25473 6.80466 7.6138 6.45586 8.05265 6.45586C8.49151 6.45586 8.85057 6.80466 8.85057 7.23096V8.78115C8.85057 9.20746 8.49151 9.55625 8.05265 9.55625ZM8.85057 12.6566H7.25473V11.1064H8.85057V12.6566Z" fill="#DF5151"/>
</svg>
