<svg width="100%" height="100%" viewBox="0 0 17 17" fill="none" xmlns="http://www.w3.org/2000/svg">
  <path d="M4.0804 6.59505C3.9911 6.50192 3.8606 6.46033 3.73367 6.48457C3.60687 6.51098 3.50213 6.59989 3.45557 6.72083L0.0264656 15.484C-0.0287724 15.6246 0.00401309 15.7844 0.110279 15.8917C0.180955 15.9658 0.278417 16.0084 0.380859 16.0099C0.427932 16.0106 0.474623 16.0015 0.517997 15.9832L9.28115 12.5541C9.40503 12.5097 9.49726 12.4045 9.52507 12.276C9.55122 12.1504 9.51257 12.02 9.42212 11.9292L4.0804 6.59505ZM4.03474 13.7887L2.22107 11.9751L2.88024 10.2949L5.715 13.1296L4.03474 13.7887ZM1.9048 12.7486L3.26126 14.105L1.05135 14.9699L1.9048 12.7486ZM6.47694 12.8247L3.16214 9.50991L3.92412 7.54775L8.46197 12.0588L6.47694 12.8247Z" fill="#DF79A8"/>
  <path d="M10.0774 9.08714C10.2507 9.22019 10.4605 9.29674 10.6787 9.30618C10.8968 9.31574 11.1127 9.25795 11.2968 9.14046C11.5236 8.975 11.699 8.74883 11.8028 8.48795C11.9065 8.22707 11.9346 7.94207 11.8835 7.66601C11.84 7.37758 11.7088 7.10955 11.5078 6.89815C11.3066 6.6869 11.0454 6.54261 10.7594 6.48483C11.0823 5.81355 11.5765 5.23922 12.192 4.81992C12.1677 5.01472 12.1677 5.21182 12.192 5.40663C12.2128 5.81551 12.4245 6.19081 12.7636 6.42017C12.9385 6.55272 13.1519 6.62441 13.3713 6.62441C13.5907 6.62441 13.8041 6.55272 13.979 6.42017C14.2125 6.21886 14.3806 5.95264 14.462 5.65538C14.5434 5.35814 14.5345 5.04343 14.4362 4.75127C14.3515 4.50787 14.1988 4.2938 13.9962 4.13446C13.7937 3.975 13.5497 3.87702 13.2932 3.85202C13.5638 3.24631 13.9261 2.68603 14.3676 2.19093C14.517 2.04142 14.517 1.79929 14.3676 1.64991C14.2182 1.5004 13.976 1.5004 13.8266 1.64991C13.2348 2.30755 12.7686 3.06826 12.4511 3.89402C11.3881 4.1836 10.4013 5.33431 9.8983 6.523C8.56098 6.92306 7.69221 8.90818 7.65037 9.01102C7.56847 9.20455 7.65892 9.42794 7.85232 9.51007C7.8999 9.52755 7.95042 9.53533 8.00094 9.53304C8.15377 9.53291 8.2918 9.44131 8.35149 9.3006C8.64796 8.63594 9.07111 8.03549 9.59733 7.53272C9.48303 8.24904 9.65066 8.80524 10.0774 9.08718L10.0774 9.08714ZM13.0188 4.57966C13.1643 4.56091 13.3119 4.59127 13.4382 4.66577C13.5644 4.74027 13.6623 4.85483 13.7161 4.9912C13.7614 5.13242 13.7664 5.28347 13.7308 5.42748C13.6951 5.57138 13.6201 5.70265 13.5142 5.80648C13.4456 5.85981 13.3542 5.89795 13.1828 5.80648C13.0275 5.70238 12.9335 5.52851 12.9312 5.34163C12.9132 5.08444 12.9429 4.82612 13.0188 4.57965L13.0188 4.57966ZM10.4432 7.24679V7.21247L10.5651 7.2353C10.7037 7.25763 10.8316 7.32295 10.9307 7.4222C11.03 7.52132 11.0953 7.64927 11.1176 7.7878C11.1446 7.9178 11.1357 8.05277 11.0921 8.17817C11.0485 8.3037 10.9717 8.41494 10.87 8.50028C10.828 8.53077 10.7137 8.60311 10.489 8.45462C10.2642 8.306 10.2642 7.83731 10.4433 7.24679L10.4432 7.24679Z" fill="#DF79A8"/>
  <path d="M5.33384 7.2469C5.99301 7.2469 7.23885 6.92682 7.23885 5.72281H7.23898C7.2326 5.322 7.19688 4.92203 7.1322 4.52645C7.07505 4.14539 7.02555 3.8063 7.1322 3.70732C7.38288 3.57617 7.66584 3.51928 7.94764 3.54339C8.51916 3.5129 9.23163 3.47475 9.67369 2.90322C10.1158 2.33169 10.1499 1.55823 9.9023 0.312388H9.90217C9.8602 0.102024 9.65545 -0.0344735 9.44496 0.00762286C9.23459 0.0497225 9.09809 0.254473 9.14019 0.464837C9.33831 1.44791 9.30782 2.11074 9.05638 2.43464C8.80494 2.75855 8.37056 2.75472 7.89051 2.78138C7.42053 2.74438 6.95326 2.87986 6.57602 3.16243C6.19497 3.54349 6.27878 4.04253 6.36642 4.62937V4.62924C6.43021 4.9905 6.46708 5.35601 6.4769 5.72277C6.4769 6.46574 5.3872 6.48474 5.33387 6.48474C5.1235 6.48474 4.95294 6.65544 4.95294 6.8658C4.95294 7.07616 5.12351 7.2469 5.33387 7.2469H5.33384Z" fill="#DF79A8"/>
  <path d="M16.0022 9.91376C16.0022 9.81273 15.962 9.7159 15.8905 9.64434C15.8191 9.5729 15.7221 9.53284 15.6211 9.53284C13.3122 9.53284 12.4893 9.91389 12.4016 9.95573C12.2192 10.0506 12.1449 10.2733 12.234 10.4586C12.2964 10.5897 12.4279 10.6739 12.5731 10.6758C12.6297 10.6741 12.6853 10.6612 12.7369 10.6377C12.7369 10.6377 13.4988 10.2948 15.6173 10.2948C15.7191 10.2958 15.8169 10.2561 15.8893 10.1846C15.9615 10.113 16.0022 10.0155 16.0022 9.91374V9.91376Z" fill="#DF79A8"/>
  <path d="M3.80999 4.51864C3.79239 4.61994 3.8165 4.72391 3.87684 4.80708C3.93705 4.89038 4.02839 4.94575 4.12994 4.96071H4.19092C4.37972 4.9631 4.54173 4.82698 4.57197 4.6406C4.57197 4.5453 4.95303 2.25923 4.57197 0.678188C4.52146 0.467696 4.30995 0.338086 4.09957 0.388602C3.88908 0.43912 3.75947 0.650631 3.80999 0.861001C4.19091 2.29362 3.80999 4.49585 3.80999 4.51871L3.80999 4.51864Z" fill="#DF79A8"/>
  <path d="M10.4585 11.7769L11.2205 11.3959C11.3183 11.3552 11.3948 11.2757 11.4315 11.1763C11.4681 11.077 11.4619 10.9669 11.4142 10.8723C11.3663 10.7778 11.2814 10.7074 11.1796 10.678C11.0777 10.6488 10.9684 10.6631 10.8776 10.7177L10.1156 11.0988C9.92884 11.1938 9.85383 11.422 9.94798 11.6093C10.0125 11.7374 10.1435 11.8184 10.2871 11.8189C10.3469 11.8196 10.4058 11.8051 10.4585 11.7769L10.4585 11.7769Z" fill="#DF79A8"/>
  <path d="M15.6212 11.819H15.2403V11.4379C15.2403 11.2276 15.0696 11.0569 14.8592 11.0569C14.6489 11.0569 14.4782 11.2276 14.4782 11.4379V11.819H14.0972C13.8868 11.819 13.7162 11.9896 13.7162 12.1999C13.7162 12.4104 13.8868 12.581 14.0972 12.581H14.4783V12.962H14.4782C14.4782 13.1724 14.6489 13.343 14.8592 13.343C15.0696 13.343 15.2403 13.1724 15.2403 12.962V12.581H15.6213H15.6212C15.8317 12.581 16.0023 12.4104 16.0023 12.1999C16.0023 11.9896 15.8317 11.819 15.6212 11.819H15.6212Z" fill="#DF79A8"/>
  <path d="M12.192 14.4859H11.8111V14.105C11.8111 13.8945 11.6404 13.7239 11.43 13.7239C11.2197 13.7239 11.049 13.8945 11.049 14.105V14.486L10.668 14.4859C10.4576 14.4859 10.287 14.6566 10.287 14.8669C10.287 15.0773 10.4576 15.248 10.668 15.248H11.0491V15.6291L11.049 15.6289C11.049 15.8394 11.2197 16.01 11.43 16.01C11.6404 16.01 11.8111 15.8394 11.8111 15.6289V15.248H12.1921H12.192C12.4025 15.248 12.5731 15.0773 12.5731 14.8669C12.5731 14.6566 12.4025 14.4859 12.192 14.4859L12.192 14.4859Z" fill="#DF79A8"/>
  <path d="M0.761723 1.91257H1.14278V2.29363C1.14278 2.50399 1.31334 2.67468 1.52383 2.67468C1.7342 2.67468 1.90476 2.50399 1.90476 2.29363V1.91257H2.28581C2.49618 1.91257 2.66687 1.74201 2.66687 1.53165C2.66687 1.32115 2.49618 1.15059 2.28581 1.15059H1.90476V0.769535C1.90476 0.559171 1.73419 0.388611 1.52383 0.388611C1.31334 0.388611 1.14278 0.559174 1.14278 0.769535V1.15059H0.761723C0.551359 1.15059 0.380798 1.32115 0.380798 1.53165C0.380798 1.74201 0.551362 1.91257 0.761723 1.91257Z" fill="#DF79A8"/>
  <path d="M2.66703 4.96077C2.66703 4.75028 2.49634 4.57971 2.28598 4.57971C2.07561 4.57971 1.90492 4.75028 1.90492 4.96077V5.34182L1.524 5.34169C1.31351 5.34169 1.14294 5.51239 1.14294 5.72275C1.14294 5.93311 1.31351 6.1038 1.524 6.1038H1.90492V6.48486V6.48473C1.90492 6.69522 2.07561 6.86579 2.28598 6.86579C2.49634 6.86579 2.66703 6.69522 2.66703 6.48473V6.10381H3.04809H3.04796C3.25845 6.10381 3.42902 5.93312 3.42902 5.72275C3.42902 5.51239 3.25845 5.3417 3.04796 5.3417H2.66704L2.66703 4.96077Z" fill="#DF79A8"/>
</svg>
