<svg width="100%" height="100%" viewBox="0 0 18 19" fill="none" xmlns="http://www.w3.org/2000/svg">
  <path fill-rule="evenodd" clip-rule="evenodd" d="M8.84208 1.90475C5.00714 1.90475 1.89471 5.01718 1.89471 8.85212C1.89471 12.6871 5.00714 15.7995 8.84208 15.7995C12.677 15.7995 15.7895 12.6871 15.7895 8.85212C15.7895 5.01718 12.677 1.90475 8.84208 1.90475ZM8.84208 12.3258C8.45998 12.3258 8.14735 12.0132 8.14735 11.6311V8.85212C8.14735 8.47002 8.45998 8.15739 8.84208 8.15739C9.22419 8.15739 9.53682 8.47002 9.53682 8.85212V11.6311C9.53682 12.0132 9.22419 12.3258 8.84208 12.3258ZM9.53682 6.76791H8.14735V5.37844H9.53682V6.76791Z" fill="#12BEE4"/>
</svg>
