<svg xmlns="http://www.w3.org/2000/svg" fill="currentColor" stroke-width="1.5" viewBox="0 0 12 12" xmlns:v="https://vecta.io/nano">
  <path d="M5.945.155a.1.1 0 0 1 .109 0l5.054 3.295c.083.054.045.184-.055.184H.946c-.099 0-.138-.129-.055-.184L5.945.155zm.836 1.978c0-.426-.352-.767-.782-.767s-.782.341-.782.767S5.57 2.9 6 2.9s.782-.341.782-.767zm-5.318 2.2a.1.1 0 0 1 .1-.1h.691a.1.1 0 0 1 .1.1v4.533a.1.1 0 0 1-.1.1h-.691a.1.1 0 0 1-.1-.1V4.333zm2.727 0a.1.1 0 0 1 .1-.1h.691a.1.1 0 0 1 .1.1v4.533a.1.1 0 0 1-.1.1h-.691a.1.1 0 0 1-.1-.1V4.333zm2.727 0a.1.1 0 0 1 .1-.1h.691a.1.1 0 0 1 .1.1v4.533a.1.1 0 0 1-.1.1h-.691a.1.1 0 0 1-.1-.1V4.333zm2.727 0a.1.1 0 0 1 .1-.1h.691a.1.1 0 0 1 .1.1v4.533a.1.1 0 0 1-.1.1h-.691a.1.1 0 0 1-.1-.1V4.333zm-9 5.333a.1.1 0 0 1 .1-.1h10.509a.1.1 0 0 1 .1.1v.667a.1.1 0 0 1-.1.1H.745a.1.1 0 0 1-.1-.1v-.667zM.1 11.133a.1.1 0 0 1 .1-.1h11.6a.1.1 0 0 1 .1.1v.667a.1.1 0 0 1-.1.1H.2a.1.1 0 0 1-.1-.1v-.667z"/>
</svg>
