<svg fill="currentColor" stroke-width="1.5" viewBox="0 0 14 17" xmlns="http://www.w3.org/2000/svg">
    <g>
        <path d="M13.0712342,15.4627532 L11.9503165,14.7156013 C11.6701582,14.5287342 11.2964241,14.5287342 10.9976266,14.7156013 L9.24161392,15.8924051 L7.46699367,14.715443 C7.33617089,14.6221519 7.16806962,14.5847468 6.99996835,14.5847468 C6.83186709,14.5847468 6.66379747,14.6407911 6.53294304,14.7342089 L4.75832278,15.8924051 L3.00231013,14.7154747 C2.7221519,14.5286076 2.34841772,14.5286076 2.04962025,14.7154747 L0.928702532,15.4626266 L0.928702532,0.854303797 L13.0712342,0.854303797 L13.0712342,15.4627532 Z M13.3798101,0 L0.620316456,0 C0.283575949,0 0,0.283575949 0,0.620316456 L0,15.8962658 C0,16.1975316 0.159462025,16.4810759 0.425348101,16.6228797 C0.691107595,16.7646835 1.01015823,16.7469937 1.25825949,16.5874051 L2.72914557,15.5950316 L4.41265823,16.711519 C4.55443038,16.8001582 4.71389241,16.8532911 4.87338608,16.8532911 C5.0328481,16.8532911 5.19231013,16.8001582 5.31642405,16.711519 L6.99993671,15.5950316 L8.68344937,16.711519 C8.96702532,16.8887975 9.32142405,16.8887975 9.58721519,16.711519 L11.2707278,15.5950316 L12.7416139,16.5874051 C12.9897152,16.7468671 13.3087658,16.7646835 13.5745253,16.6228797 C13.8402848,16.4811076 14,16.1975316 14,15.8962658 L14,0.620316456 C14,0.283575949 13.7164241,0 13.3798101,0 Z"></path>
        <path d="M10.7060791,10.3196741 L3.2940538,10.3196741 C3.04180696,10.3196741 2.8354462,10.1133133 2.8354462,9.86106646 L2.8354462,9.86106646 C2.8354462,9.60881962 3.04180696,9.40245886 3.2940538,9.40245886 L10.7060791,9.40245886 C10.9583259,9.40245886 11.1646867,9.60881962 11.1646867,9.86106646 L11.1646867,9.86106646 C11.1646867,10.1133133 10.9583259,10.3196741 10.7060791,10.3196741"></path>
        <path d="M10.7060791,12.4560127 L3.2940538,12.4560127 C3.04180696,12.4560127 2.8354462,12.2496519 2.8354462,11.9974051 L2.8354462,11.9974051 C2.8354462,11.7451582 3.04180696,11.5387975 3.2940538,11.5387975 L10.7060791,11.5387975 C10.9583259,11.5387975 11.1646867,11.7451582 11.1646867,11.9974051 L11.1646867,11.9974051 C11.1646867,12.2496519 10.9583259,12.4560127 10.7060791,12.4560127"></path>
        <path d="M7.3761962,7.83259494 C6.80910759,7.83259494 6.31075316,7.67772152 5.88097468,7.36794304 C5.45122785,7.05816456 5.14929747,6.65617089 4.9751519,6.16183544 L4.32284177,6.16183544 L4.32284177,5.58477848 L4.88388608,5.58477848 C4.87451899,5.52439873 4.86863291,5.4371519 4.86632278,5.32310127 L4.88309494,5.06142405 L4.32284177,5.06142405 L4.32284177,4.48436709 L4.9751519,4.48436709 C5.14929747,3.99009494 5.45122785,3.58860759 5.88097468,3.27993671 C6.31075316,2.97129747 6.80910759,2.81696203 7.3761962,2.81696203 C7.88812658,2.81696203 8.34255696,2.93848101 8.73961392,3.18142405 C9.13657595,3.42443038 9.44917089,3.72727848 9.6773038,4.09006329 L8.96271519,4.49778481 C8.58243038,3.92743671 8.05360127,3.64227848 7.3761962,3.64227848 C6.65290506,3.64227848 6.14942405,3.92300633 5.86594304,4.48436709 L7.58046835,4.48436709 L7.58046835,5.06142405 L5.77214557,5.06142405 C5.76318987,5.1218038 5.75872785,5.20901899 5.75872785,5.32310127 L5.77214557,5.58477848 L7.58046835,5.58477848 L7.58046835,6.16183544 L5.86594304,6.16183544 C6.14496203,6.72547468 6.64837975,7.00727848 7.3761962,7.00727848 C8.05360127,7.00727848 8.58243038,6.72101266 8.96271519,6.14841772 L9.6773038,6.56107595 C9.44917089,6.92341772 9.13657595,7.22591772 8.73961392,7.46857595 C8.34255696,7.71129747 7.88812658,7.83259494 7.3761962,7.83259494"></path>
    </g>
</svg>
