<svg width="100%" height="100%" viewBox="0 0 14 19" version="1.1" xmlns="http://www.w3.org/2000/svg" xmlns:xlink="http://www.w3.org/1999/xlink"  preserveAspectRatio="xMidYMid meet" focusable="false">
    <style type="text/css">
        .st0{fill-rule:evenodd;clip-rule:evenodd;}
    </style>
    <g class="st0">
        <path d="M13.8602862,1.20359192 C13.7729764,1.14214731 13.6610856,1.12856473 13.5614774,1.16672831 C13.3875038,1.23269519 12.2031411,1.65383382 12.0278675,1.71592447 L12.0349818,0.312444172 C12.0356279,0.209605796 11.9851817,0.113243567 11.89981,0.0543909909 C11.8150843,-0.0038234242 11.7064237,-0.0161060434 11.6107075,0.0214036102 C8.05027642,1.43652049 4.15675704,2.16994806 0.337626689,1.86467888 C0.250309006,1.85756458 0.164937318,1.88666784 0.100262513,1.94552042 C0.035587708,2.00502691 -0.000629867645,2.08845261 4.05857039e-16,2.17577029 L0.0931482056,17.5383331 C0.0944402836,17.6909716 0.202446972,17.8222593 0.352501343,17.8526625 C2.04896032,18.1954414 4.42257845,18.3681307 6.15267084,18.3668536 C8.54310962,18.3668536 11.3398518,17.780125 13.6442649,17.1424215 C13.7833209,17.1036118 13.879691,16.9775003 13.8809831,16.8332682 L14,1.47135144 C14.0006342,1.36463683 13.9482499,1.26439049 13.8609322,1.20359192 L13.8602862,1.20359192 Z M11.2580018,1.19162444 L11.1247838,15.4059711 C7.8684322,16.6778485 4.46943203,17.2754503 0.981199694,17.0492264 L0.936583611,10.2707096 L0.890706965,3.34200459 L0.88694103,2.7293154 C4.43298598,2.96433965 7.93252399,2.44590913 11.2580018,1.19162444 L11.2580018,1.19162444 Z M13.1653925,16.4929553 C11.0288864,17.0661101 8.40989165,17.6185601 6.19870506,17.6160319 C8.27888755,17.3441117 9.75217157,16.771603 11.7032566,15.9948514 C11.8184327,15.948896 11.8950041,15.8372021 11.8956423,15.7121069 L11.9886719,2.48498661 C12.0924557,2.44860358 13.1729874,2.07486215 13.2761409,2.03720281 L13.1653925,16.4929553 Z"></path>
        <path d="M8.41511275,8.39976499 C7.97078762,7.73165827 7.20048856,7.58290385 6.63134397,7.8338506 C6.99352761,8.22966766 7.20114247,8.69727382 7.23671401,9.24120713 C7.27293159,9.7857786 7.12740737,10.2760276 6.81502388,10.7171147 C7.15133444,10.8024864 7.47666234,10.7837355 7.79098394,10.6401494 C8.10595946,10.4959251 8.3407316,10.261153 8.50306859,9.9448854 C8.71262158,10.0393095 8.92023645,10.1330876 9.13237359,10.2288117 C9.10714656,10.2773197 9.08451156,10.3238818 9.0592924,10.3685136 C8.84391719,10.748164 8.54834647,11.0398506 8.16998823,11.2403511 C7.98501624,11.3380133 7.78969187,11.4046262 7.58596111,11.443428 C7.57690869,11.445374 7.56785626,11.445374 7.55879596,11.44602 C7.44690516,11.4537803 7.33436832,11.4583105 7.22313144,11.469301 C7.08989771,11.4815915 6.95860211,11.4660708 6.8273065,11.4421359 C6.64104243,11.4078564 6.46253083,11.3477118 6.29178746,11.2616941 C6.27820488,11.2545797 6.26915246,11.2571639 6.25686196,11.2649242 C6.07965032,11.3852214 5.88821006,11.4751233 5.68383326,11.5346219 C5.58423296,11.563733 5.48397874,11.5876601 5.37921012,11.5908982 C5.30029883,11.5934823 5.22074937,11.5980046 5.14184595,11.6064189 C4.99244549,11.6225856 4.84498316,11.6070649 4.6988129,11.5760157 C4.11931593,11.4531343 3.66140823,11.1362207 3.32055963,10.6349811 C3.31797548,10.631097 3.31538344,10.6272129 3.31279929,10.6226906 C3.31150721,10.6207525 3.31150721,10.6181604 3.30956122,10.6129842 C3.50294747,10.4926871 3.69697976,10.3717438 3.89165022,10.2501546 C4.13483662,10.5955254 4.45562649,10.8121927 4.86050385,10.88592 C5.13666976,10.9357201 5.40507532,10.8995025 5.66702049,10.7927879 C5.30029883,10.398263 5.09139976,9.93194886 5.05518218,9.38736951 C5.01831069,8.84279804 5.16254283,8.35190296 5.47105008,7.90822387 C5.13020149,7.82026803 4.80165127,7.84419511 4.48538368,7.9942416 C4.16846216,8.14364993 3.9349821,8.38489034 3.77588318,8.70762621 C3.56697624,8.61254818 3.35936925,8.51812406 3.14981626,8.42304603 C3.15175438,8.41657777 3.15369249,8.41076341 3.15628453,8.40558722 C3.31086117,8.07767517 3.52882054,7.80409342 3.81145472,7.58678009 C4.0365284,7.41280651 4.28552915,7.29056333 4.55846487,7.21877422 C4.73567651,7.17221214 4.91612623,7.14892323 5.0991601,7.15086134 C5.41089755,7.15409942 5.70970633,7.22330437 5.99104843,7.36559052 C6.01044536,7.37593502 6.02402793,7.37528898 6.04214066,7.36236032 C6.24457934,7.22330437 6.46447683,7.12628823 6.70054105,7.06937377 C7.09571206,6.97559569 7.48765288,6.9930545 7.8724794,7.12951842 C8.33491725,7.29250933 8.70292312,7.58613405 8.97908903,8.00394794 C8.99913987,8.03369725 8.99849383,8.0362814 8.96874452,8.05439413 C8.79087896,8.16628493 8.61237524,8.27752969 8.43387152,8.38876658 C8.42804929,8.39265069 8.42222706,8.39588088 8.41511275,8.39976499 M6.27432865,10.2766737 C6.80208735,9.67517988 6.70184101,8.78588359 6.14497116,8.33120608 C5.64566969,8.88872196 5.68577138,9.74891499 6.27432865,10.2766737"></path>
    </g>
</svg>