<svg width="13" height="14" viewBox="0 0 13 14" fill="currentColor" xmlns="http://www.w3.org/2000/svg">
    <path fill-rule="evenodd" clip-rule="evenodd"
          d="M11.67 12.06C11.67 12.45 11.35 12.77 10.96 12.77H3.42C3.03 12.77 2.71 12.45 2.71 12.06V11.63H3.2C3.52 11.63 3.77 11.37 3.77 11.06C3.77 10.74 3.52 10.49 3.2 10.49H2.71V8.89H3.2C3.52 8.89 3.77 8.63 3.77 8.32C3.77 8.01 3.52 7.75 3.2 7.75H2.71V6.16H3.2C3.52 6.16 3.77 5.9 3.77 5.59C3.77 5.27 3.52 5.02 3.2 5.02H2.71V3.42H3.2C3.52 3.42 3.77 3.17 3.77 2.85C3.77 2.54 3.52 2.28 3.2 2.28H2.71V1.84C2.71 1.45 3.03 1.13 3.42 1.13H10.96C11.35 1.13 11.67 1.45 11.67 1.84V12.06ZM12.27 0.54C11.92 0.19 11.46 0 10.96 0H3.42C2.4 0 1.57 0.83 1.57 1.84V2.28H1.07C0.75 2.28 0.5 2.54 0.5 2.85C0.5 3.17 0.75 3.42 1.07 3.42H1.56V5.02H1.07C0.75 5.02 0.5 5.27 0.5 5.59C0.5 5.9 0.75 6.16 1.07 6.16H1.56V7.75H1.07C0.75 7.75 0.5 8.01 0.5 8.32C0.5 8.63 0.75 8.89 1.07 8.89H1.56V10.49H1.07C0.75 10.49 0.5 10.74 0.5 11.06C0.5 11.37 0.75 11.63 1.07 11.63H1.56V12.06C1.56 13.08 2.39 13.91 3.41 13.91H10.96C11.98 13.91 12.81 13.08 12.81 12.06V1.84C12.81 1.35 12.62 0.89 12.27 0.54Z"/>
    <path fill-rule="evenodd" clip-rule="evenodd"
          d="M5.80001 9.56005C6.01001 8.95005 6.54001 8.56005 7.19001 8.56005C7.83001 8.56005 8.37001 8.96005 8.58001 9.56005H5.80001ZM7.19001 7.43005C5.72001 7.43005 4.57001 8.61005 4.57001 10.1301C4.57001 10.4401 4.82001 10.7001 5.14001 10.7001H9.24001C9.55001 10.7001 9.81001 10.4401 9.81001 10.1301C9.81001 8.61005 8.66001 7.43005 7.19001 7.43005Z"/>
    <path fill-rule="evenodd" clip-rule="evenodd"
          d="M7.19001 5.66996C6.82001 5.66996 6.53001 5.36996 6.53001 5.00996C6.53001 4.63996 6.82001 4.34996 7.19001 4.34996C7.55001 4.34996 7.85001 4.63996 7.85001 5.00996C7.85001 5.36996 7.55001 5.66996 7.19001 5.66996ZM7.19001 3.20996C6.19001 3.20996 5.39001 4.01996 5.39001 5.00996C5.39001 5.99996 6.20001 6.80996 7.19001 6.80996C8.18001 6.80996 8.99001 5.99996 8.99001 5.00996C8.99001 4.01996 8.18001 3.20996 7.19001 3.20996Z"/>
</svg>
