<svg width="100%" height="100%" viewBox="0 0 17 17" version="1.1" xmlns="http://www.w3.org/2000/svg" xmlns:xlink="http://www.w3.org/1999/xlink"  preserveAspectRatio="xMidYMid meet" focusable="false">
    <style type="text/css">
        .st0{fill-rule:evenodd;clip-rule:evenodd;}
    </style>
    <g class="st0">
        <path d="M11.353876,8.49142506 C11.353876,8.36048219 11.3100929,8.22953932 11.2007114,8.09860425 C10.3696098,7.26911232 9.51667718,6.41783167 8.68573181,5.58849565 C8.18275933,5.08649732 7.41726795,5.85038139 7.92020137,6.35254343 L9.53862535,7.96783288 L0.528157939,7.96783288 C0.396960972,7.96783288 0.265764005,8.01153118 0.200169426,8.07700261 C0.0689724595,8.16424718 -0.0185937248,8.31711521 0.00337397595,8.51351781 C0.0689724595,11.503875 1.57801877,14.2978607 4.18055668,15.8258004 C8.90410052,18.6411851 15.2682899,16.065605 16.7121048,10.7177267 C18.1555683,5.3262825 13.9783465,0.109460019 8.48895979,0.000321473332 C7.78903956,-0.0214512767 7.78903956,1.0699182 8.48895979,1.09170693 C11.507068,1.15717836 14.2626574,2.92519552 15.3780308,5.74100897 C16.4715341,8.46947262 15.7936011,11.6563181 13.7377758,13.7299505 C11.6601585,15.8035439 8.46708973,16.4584142 5.73333141,15.3670287 C3.08697525,14.3193376 1.33744803,11.8090731 1.0968773,9.03699305 L9.47311279,9.03699305 L7.85468881,10.6522825 C7.35171633,11.1542808 8.13904654,11.9182896 8.62021924,11.4163303 C9.47315184,10.5650496 10.3260844,9.71376897 11.200809,8.84073856 C11.3101906,8.75303794 11.3539737,8.62209508 11.3539737,8.49115221 L11.353876,8.49142506 Z"></path>
    </g>
</svg>