<svg width="12" height="14" viewBox="0 0 12 14" fill="currentColor" xmlns="http://www.w3.org/2000/svg">
<mask id="mask0_331_5346" style="mask-type:luminance" maskUnits="userSpaceOnUse" x="0" y="0" width="12" height="14">
<path fill-rule="evenodd" clip-rule="evenodd" d="M0.674049 0.583374H11.9942V14H0.674049V0.583374Z" fill="white"/>
</mask>
<g mask="url(#mask0_331_5346)">
<path fill-rule="evenodd" clip-rule="evenodd" d="M11.4068 12.4028C11.4053 12.9314 11.0097 13.3597 10.5212 13.3612H3.54576C3.05729 13.3597 2.66156 12.9314 2.66017 12.4028V11.7128H3.35083C3.51392 11.7128 3.64603 11.5698 3.64603 11.3934C3.64603 11.217 3.51392 11.0739 3.35083 11.0739H2.66017V8.97837H3.35083C3.51392 8.97837 3.64603 8.83544 3.64603 8.65893C3.64603 8.48254 3.51392 8.33949 3.35083 8.33949H2.66017V6.24393H3.35083C3.51392 6.24393 3.64603 6.1009 3.64603 5.92449C3.64603 5.748 3.51392 5.60504 3.35083 5.60504H2.66017V3.50949H3.35083C3.51392 3.50949 3.64603 3.36645 3.64603 3.19004C3.64603 3.01366 3.51392 2.8706 3.35083 2.8706H2.66017V2.1806C2.66156 1.65203 3.05729 1.22377 3.54576 1.22226H10.5212C11.0097 1.22377 11.4053 1.65203 11.4068 2.1806V12.4028ZM10.5212 0.583374H3.54576C2.73073 0.583783 2.07006 1.29865 2.06978 2.1806V2.8706H1.37607C1.21298 2.8706 1.08087 3.01366 1.08087 3.19004C1.08087 3.36645 1.21298 3.50949 1.37607 3.50949H2.06673V5.60504H1.37607C1.21298 5.60504 1.08087 5.748 1.08087 5.92449C1.08087 6.1009 1.21298 6.24393 1.37607 6.24393H2.06673V8.33949H1.37607C1.21298 8.33949 1.08087 8.48255 1.08087 8.65893C1.08087 8.83544 1.21298 8.97837 1.37607 8.97837H2.06673V11.0739H1.37607C1.21298 11.0739 1.08087 11.217 1.08087 11.3934C1.08087 11.5698 1.21298 11.7128 1.37607 11.7128H2.06673V12.4028C2.06711 13.2848 2.72769 13.9997 3.54271 14H10.5182C11.3332 13.9997 11.994 13.2848 11.9942 12.4028V2.1806C11.9954 1.29924 11.3357 0.583987 10.5212 0.583374Z"/>
<path d="M11.4068 12.4028L11.6568 12.4035V12.4028H11.4068ZM10.5212 13.3612V13.6112L10.522 13.6112L10.5212 13.3612ZM3.54576 13.3612L3.545 13.6112H3.54576V13.3612ZM2.66017 12.4028H2.41017L2.41017 12.4035L2.66017 12.4028ZM2.66017 11.7128V11.4628H2.41017V11.7128H2.66017ZM2.66017 11.0739H2.41017V11.3239H2.66017V11.0739ZM2.66017 8.97837V8.72837H2.41017V8.97837H2.66017ZM2.66017 8.33949H2.41017V8.58949H2.66017V8.33949ZM2.66017 6.24393V5.99393H2.41017V6.24393H2.66017ZM2.66017 5.60504H2.41017V5.85504H2.66017V5.60504ZM2.66017 3.50949V3.25949H2.41017V3.50949H2.66017ZM2.66017 2.8706H2.41017V3.1206H2.66017V2.8706ZM2.66017 2.1806L2.41017 2.17994V2.1806H2.66017ZM3.54576 1.22226L3.54576 0.972262L3.54498 0.972264L3.54576 1.22226ZM10.5212 1.22226L10.522 0.972263H10.5212V1.22226ZM11.4068 2.1806H11.6568L11.6568 2.17989L11.4068 2.1806ZM3.54576 0.583374V0.333374L3.54563 0.333374L3.54576 0.583374ZM2.06978 2.1806L1.81978 2.18052V2.1806H2.06978ZM2.06978 2.8706V3.1206H2.31978V2.8706H2.06978ZM2.06673 3.50949H2.31673V3.25949H2.06673V3.50949ZM2.06673 5.60504V5.85504H2.31673V5.60504H2.06673ZM2.06673 6.24393H2.31673V5.99393H2.06673V6.24393ZM2.06673 8.33949V8.58949H2.31673V8.33949H2.06673ZM2.06673 8.97837H2.31673V8.72837H2.06673V8.97837ZM2.06673 11.0739V11.3239H2.31673V11.0739H2.06673ZM2.06673 11.7128H2.31673V11.4628H2.06673V11.7128ZM2.06673 12.4028H1.81673V12.4029L2.06673 12.4028ZM3.54271 14L3.54259 14.25H3.54271V14ZM10.5182 14V14.25H10.5183L10.5182 14ZM11.9942 12.4028L12.2442 12.4029V12.4028H11.9942ZM11.9942 2.1806L11.7442 2.18025V2.1806H11.9942ZM11.1568 12.4021C11.1557 12.8121 10.8533 13.1101 10.5205 13.1112L10.522 13.6112C11.1661 13.6092 11.655 13.0507 11.6568 12.4035L11.1568 12.4021ZM10.5212 13.1112H3.54576V13.6112H10.5212V13.1112ZM3.54651 13.1112C3.21364 13.1101 2.91125 12.812 2.91017 12.4022L2.41017 12.4035C2.41188 13.0508 2.90094 13.6092 3.545 13.6112L3.54651 13.1112ZM2.91017 12.4028V11.7128H2.41017V12.4028H2.91017ZM2.66017 11.9628H3.35083V11.4628H2.66017V11.9628ZM3.35083 11.9628C3.67025 11.9628 3.89603 11.6889 3.89603 11.3934H3.39603C3.39603 11.4188 3.3866 11.4381 3.37597 11.4496C3.36565 11.4608 3.35665 11.4628 3.35083 11.4628V11.9628ZM3.89603 11.3934C3.89603 11.0979 3.67026 10.8239 3.35083 10.8239V11.3239C3.35664 11.3239 3.36564 11.326 3.37596 11.3372C3.3866 11.3487 3.39603 11.3679 3.39603 11.3934H3.89603ZM3.35083 10.8239H2.66017V11.3239H3.35083V10.8239ZM2.91017 11.0739V8.97837H2.41017V11.0739H2.91017ZM2.66017 9.22837H3.35083V8.72837H2.66017V9.22837ZM3.35083 9.22837C3.6702 9.22837 3.89603 8.95458 3.89603 8.65893H3.39603C3.39603 8.68448 3.38658 8.7037 3.37599 8.71517C3.3657 8.72629 3.35671 8.72837 3.35083 8.72837V9.22837ZM3.89603 8.65893C3.89603 8.36348 3.67026 8.08949 3.35083 8.08949V8.58949C3.35664 8.58949 3.36564 8.59154 3.37596 8.60271C3.3866 8.61423 3.39603 8.63347 3.39603 8.65893H3.89603ZM3.35083 8.08949H2.66017V8.58949H3.35083V8.08949ZM2.91017 8.33949V6.24393H2.41017V8.33949H2.91017ZM2.66017 6.49393H3.35083V5.99393H2.66017V6.49393ZM3.35083 6.49393C3.67025 6.49393 3.89603 6.21998 3.89603 5.92449H3.39603C3.39603 5.94996 3.3866 5.9692 3.37597 5.98071C3.36565 5.99187 3.35665 5.99393 3.35083 5.99393V6.49393ZM3.89603 5.92449C3.89603 5.62888 3.67021 5.35504 3.35083 5.35504V5.85504C3.35669 5.85504 3.36569 5.85712 3.37598 5.86825C3.38658 5.87972 3.39603 5.89895 3.39603 5.92449H3.89603ZM3.35083 5.35504H2.66017V5.85504H3.35083V5.35504ZM2.91017 5.60504V3.50949H2.41017V5.60504H2.91017ZM2.66017 3.75949H3.35083V3.25949H2.66017V3.75949ZM3.35083 3.75949C3.67025 3.75949 3.89603 3.48553 3.89603 3.19004H3.39603C3.39603 3.21551 3.3866 3.23476 3.37597 3.24626C3.36565 3.25742 3.35665 3.25949 3.35083 3.25949V3.75949ZM3.89603 3.19004C3.89603 2.89459 3.67026 2.6206 3.35083 2.6206V3.1206C3.35664 3.1206 3.36564 3.12265 3.37596 3.13382C3.3866 3.14534 3.39603 3.16459 3.39603 3.19004H3.89603ZM3.35083 2.6206H2.66017V3.1206H3.35083V2.6206ZM2.91017 2.8706V2.1806H2.41017V2.8706H2.91017ZM2.91017 2.18126C2.91125 1.77141 3.21364 1.47329 3.54653 1.47226L3.54498 0.972264C2.90094 0.974252 2.41188 1.53265 2.41017 2.17994L2.91017 2.18126ZM3.54576 1.47226H10.5212V0.972263H3.54576V1.47226ZM10.5205 1.47226C10.8533 1.47329 11.1557 1.77138 11.1568 2.1813L11.6568 2.17989C11.655 1.53268 11.1661 0.974252 10.522 0.972264L10.5205 1.47226ZM11.1568 2.1806V12.4028H11.6568V2.1806H11.1568ZM10.5212 0.333374H3.54576V0.833374H10.5212V0.333374ZM3.54563 0.333374C2.57445 0.333861 1.8201 1.17947 1.81978 2.18052L2.31978 2.18068C2.32002 1.41783 2.88701 0.833705 3.54588 0.833374L3.54563 0.333374ZM1.81978 2.1806V2.8706H2.31978V2.1806H1.81978ZM2.06978 2.6206H1.37607V3.1206H2.06978V2.6206ZM1.37607 2.6206C1.05664 2.6206 0.830872 2.89459 0.830872 3.19004H1.33087C1.33087 3.16459 1.3403 3.14534 1.35094 3.13382C1.36126 3.12265 1.37026 3.1206 1.37607 3.1206V2.6206ZM0.830872 3.19004C0.830872 3.48553 1.05665 3.75949 1.37607 3.75949V3.25949C1.37025 3.25949 1.36125 3.25742 1.35093 3.24626C1.3403 3.23476 1.33087 3.21551 1.33087 3.19004H0.830872ZM1.37607 3.75949H2.06673V3.25949H1.37607V3.75949ZM1.81673 3.50949V5.60504H2.31673V3.50949H1.81673ZM2.06673 5.35504H1.37607V5.85504H2.06673V5.35504ZM1.37607 5.35504C1.05669 5.35504 0.830872 5.62888 0.830872 5.92449H1.33087C1.33087 5.89895 1.34032 5.87972 1.35092 5.86825C1.36121 5.85712 1.37021 5.85504 1.37607 5.85504V5.35504ZM0.830872 5.92449C0.830872 6.21998 1.05665 6.49393 1.37607 6.49393V5.99393C1.37025 5.99393 1.36125 5.99187 1.35093 5.98071C1.3403 5.9692 1.33087 5.94996 1.33087 5.92449H0.830872ZM1.37607 6.49393H2.06673V5.99393H1.37607V6.49393ZM1.81673 6.24393V8.33949H2.31673V6.24393H1.81673ZM2.06673 8.08949H1.37607V8.58949H2.06673V8.08949ZM1.37607 8.08949C1.05664 8.08949 0.830872 8.36348 0.830872 8.65893H1.33087C1.33087 8.63347 1.3403 8.61423 1.35094 8.60271C1.36126 8.59154 1.37026 8.58949 1.37607 8.58949V8.08949ZM0.830872 8.65893C0.830872 8.95458 1.0567 9.22837 1.37607 9.22837V8.72837C1.37019 8.72837 1.3612 8.72629 1.35091 8.71517C1.34032 8.7037 1.33087 8.68448 1.33087 8.65893H0.830872ZM1.37607 9.22837H2.06673V8.72837H1.37607V9.22837ZM1.81673 8.97837V11.0739H2.31673V8.97837H1.81673ZM2.06673 10.8239H1.37607V11.3239H2.06673V10.8239ZM1.37607 10.8239C1.05664 10.8239 0.830872 11.0979 0.830872 11.3934H1.33087C1.33087 11.3679 1.3403 11.3487 1.35094 11.3372C1.36126 11.326 1.37026 11.3239 1.37607 11.3239V10.8239ZM0.830872 11.3934C0.830872 11.6889 1.05665 11.9628 1.37607 11.9628V11.4628C1.37025 11.4628 1.36125 11.4608 1.35093 11.4496C1.3403 11.4381 1.33087 11.4188 1.33087 11.3934H0.830872ZM1.37607 11.9628H2.06673V11.4628H1.37607V11.9628ZM1.81673 11.7128V12.4028H2.31673V11.7128H1.81673ZM1.81673 12.4029C1.81716 13.4039 2.57138 14.2496 3.54259 14.25L3.54283 13.75C2.88399 13.7497 2.31706 13.1656 2.31673 12.4027L1.81673 12.4029ZM3.54271 14.25H10.5182V13.75H3.54271V14.25ZM10.5183 14.25C11.4895 14.2496 12.2439 13.404 12.2442 12.4029L11.7442 12.4028C11.744 13.1656 11.177 13.7497 10.5181 13.75L10.5183 14.25ZM12.2442 12.4028V2.1806H11.7442V12.4028H12.2442ZM12.2442 2.18094C12.2455 1.18038 11.4922 0.334105 10.5214 0.333374L10.521 0.833374C11.1792 0.83387 11.7452 1.4181 11.7442 2.18025L12.2442 2.18094Z"/>
</g>
<path fill-rule="evenodd" clip-rule="evenodd" d="M7.24988 6.2556L7.22084 6.2866C7.02877 6.4999 6.91178 6.78318 6.91194 7.09399C6.91201 7.41994 7.04074 7.71549 7.2497 7.93176C7.45908 7.71517 7.58774 7.41942 7.5876 7.09333C7.58751 6.76749 7.45878 6.47192 7.24988 6.2556ZM8.10174 5.33203C8.74473 5.33187 9.3068 5.68216 9.60984 6.20408L9.13373 6.49405C8.92805 6.13458 8.54292 5.8928 8.10189 5.89296C7.97153 5.893 7.84608 5.91416 7.72873 5.95326C7.98753 6.26072 8.14365 6.65852 8.14379 7.09317C8.14392 7.52825 7.98773 7.92656 7.72875 8.23402C7.84617 8.27334 7.97199 8.29456 8.10271 8.29452C8.54129 8.29452 8.92445 8.05488 9.13097 7.69852L9.60984 7.98374C9.3068 8.50516 8.74537 8.85545 8.10289 8.8556C7.79302 8.85572 7.50199 8.77443 7.24968 8.6318C6.99781 8.77432 6.70739 8.85551 6.39822 8.8556C5.75576 8.85579 5.19453 8.50566 4.89111 7.98455L5.36963 7.69902C5.57609 8.05536 5.95929 8.29468 6.39803 8.29452C6.52835 8.29449 6.65375 8.27332 6.77108 8.23424C6.51206 7.92681 6.35594 7.52889 6.35587 7.09415C6.35573 6.65893 6.51204 6.26056 6.77118 5.95314C6.65375 5.91398 6.52803 5.89275 6.39738 5.8928C5.95651 5.89296 5.57172 6.13508 5.36622 6.49453L4.88982 6.2049C5.1929 5.68282 5.75447 5.33219 6.39724 5.33203C6.70691 5.33194 6.99778 5.41318 7.25002 5.55579C7.50174 5.41337 7.79231 5.33215 8.10174 5.33203Z"/>
<path d="M7.22084 6.2866L7.14785 6.21822L7.14653 6.21968L7.22084 6.2866ZM6.91194 7.09399L7.01194 7.09397V7.09394L6.91194 7.09399ZM7.2497 7.93176L7.17779 8.00125L7.24969 8.07566L7.3216 8.00127L7.2497 7.93176ZM7.5876 7.09333L7.4876 7.09336V7.09337L7.5876 7.09333ZM9.60984 6.20408L9.66186 6.28949L9.74549 6.23855L9.69632 6.15387L9.60984 6.20408ZM9.13373 6.49405L9.04694 6.54372L9.09797 6.63292L9.18575 6.57946L9.13373 6.49405ZM8.10189 5.89296L8.10193 5.99296H8.10193L8.10189 5.89296ZM7.72873 5.95326L7.69712 5.85838L7.55736 5.90495L7.65222 6.01765L7.72873 5.95326ZM8.14379 7.09317L8.24379 7.09314L8.14379 7.09317ZM7.72875 8.23402L7.65227 8.16959L7.55749 8.28212L7.69699 8.32884L7.72875 8.23402ZM8.10271 8.29452V8.19452H8.10267L8.10271 8.29452ZM9.13097 7.69852L9.18214 7.6126L9.0952 7.56081L9.04445 7.64838L9.13097 7.69852ZM9.60984 7.98374L9.6963 8.03398L9.74601 7.94845L9.66101 7.89782L9.60984 7.98374ZM8.10289 8.8556L8.10286 8.7556H8.10285L8.10289 8.8556ZM7.24968 8.6318L7.29889 8.54474L7.24966 8.51691L7.20043 8.54476L7.24968 8.6318ZM6.39822 8.8556L6.39824 8.9556H6.39824L6.39822 8.8556ZM4.89111 7.98455L4.83986 7.89868L4.7549 7.94938L4.80469 8.03487L4.89111 7.98455ZM5.36963 7.69902L5.45616 7.64889L5.40538 7.56124L5.31839 7.61314L5.36963 7.69902ZM6.39803 8.29452L6.39802 8.19452H6.398L6.39803 8.29452ZM6.77108 8.23424L6.80268 8.32912L6.94254 8.28254L6.84756 8.16981L6.77108 8.23424ZM6.35587 7.09415L6.45587 7.09413V7.09412L6.35587 7.09415ZM6.77118 5.95314L6.84763 6.01759L6.94262 5.90491L6.80282 5.85828L6.77118 5.95314ZM6.39738 5.8928L6.39734 5.7928H6.39734L6.39738 5.8928ZM5.36622 6.49453L5.31427 6.57998L5.40205 6.63334L5.45303 6.54416L5.36622 6.49453ZM4.88982 6.2049L4.80333 6.15469L4.75413 6.23944L4.83787 6.29035L4.88982 6.2049ZM6.39724 5.33203L6.39727 5.43203H6.39727L6.39724 5.33203ZM7.25002 5.55579L7.2008 5.64284L7.25004 5.67068L7.29927 5.64283L7.25002 5.55579ZM7.17691 6.18723L7.14786 6.21823L7.29382 6.35497L7.32286 6.32397L7.17691 6.18723ZM7.14653 6.21968C6.93849 6.45072 6.81177 6.75765 6.81194 7.09404L7.01194 7.09394C7.0118 6.80871 7.11906 6.54908 7.29515 6.35352L7.14653 6.21968ZM6.81194 7.09401C6.81201 7.44678 6.95145 7.76698 7.17779 8.00125L7.32162 7.86228C7.13003 7.66399 7.012 7.39311 7.01194 7.09397L6.81194 7.09401ZM7.3216 8.00127C7.54838 7.76666 7.68775 7.44622 7.6876 7.09329L7.4876 7.09337C7.48773 7.39262 7.36977 7.66367 7.1778 7.86226L7.3216 8.00127ZM7.6876 7.0933C7.6875 6.74065 7.54807 6.42043 7.32182 6.18613L7.17795 6.32506C7.36949 6.52341 7.48752 6.79433 7.4876 7.09336L7.6876 7.0933ZM8.10176 5.43203C8.70742 5.43188 9.23735 5.76171 9.52336 6.2543L9.69632 6.15387C9.37625 5.60262 8.78205 5.23186 8.10171 5.23203L8.10176 5.43203ZM9.55782 6.11868L9.08172 6.40865L9.18575 6.57946L9.66186 6.28949L9.55782 6.11868ZM9.22053 6.44439C8.9979 6.05529 8.58048 5.79279 8.10186 5.79296L8.10193 5.99296C8.50536 5.99281 8.8582 6.21386 9.04694 6.54372L9.22053 6.44439ZM8.10186 5.79296C7.96064 5.79301 7.82453 5.81593 7.69712 5.85838L7.76034 6.04813C7.86763 6.01238 7.98243 5.993 8.10193 5.99296L8.10186 5.79296ZM7.65222 6.01765C7.89638 6.30771 8.04366 6.6829 8.04379 7.0932L8.24379 7.09314C8.24364 6.63414 8.07868 6.21372 7.80524 5.88886L7.65222 6.01765ZM8.04379 7.0932C8.04391 7.50392 7.89656 7.87957 7.65227 8.16959L7.80524 8.29844C8.0789 7.97354 8.24393 7.55258 8.24379 7.09314L8.04379 7.0932ZM7.69699 8.32884C7.82458 8.37157 7.96112 8.39457 8.10274 8.39452L8.10267 8.19452C7.98285 8.19456 7.86777 8.17512 7.76051 8.13919L7.69699 8.32884ZM8.10271 8.39452C8.57875 8.39452 8.994 8.1343 9.21749 7.74866L9.04445 7.64838C8.8549 7.97546 8.50383 8.19452 8.10271 8.19452V8.39452ZM9.0798 7.78443L9.55867 8.06965L9.66101 7.89782L9.18214 7.6126L9.0798 7.78443ZM9.52338 7.93349C9.23735 8.42565 8.70799 8.75545 8.10286 8.7556L8.10291 8.9556C8.78274 8.95544 9.37625 8.58467 9.6963 8.03398L9.52338 7.93349ZM8.10285 8.7556C7.81072 8.75571 7.5366 8.67912 7.29889 8.54474L7.20047 8.71885C7.46738 8.86974 7.77532 8.95572 8.10293 8.9556L8.10285 8.7556ZM7.20043 8.54476C6.96316 8.67902 6.68964 8.75552 6.39819 8.7556L6.39824 8.9556C6.72513 8.95551 7.03245 8.86961 7.29893 8.71883L7.20043 8.54476ZM6.39819 8.7556C5.79312 8.75578 5.26395 8.42614 4.97752 7.93424L4.80469 8.03487C5.12511 8.58517 5.7184 8.9558 6.39824 8.9556L6.39819 8.7556ZM4.94235 8.07043L5.42087 7.78489L5.31839 7.61314L4.83986 7.89868L4.94235 8.07043ZM5.28311 7.74915C5.50656 8.13483 5.92191 8.39469 6.39807 8.39452L6.398 8.19452C5.99668 8.19466 5.64561 7.97588 5.45616 7.64889L5.28311 7.74915ZM6.39805 8.39452C6.53925 8.39449 6.67532 8.37154 6.80268 8.32912L6.73949 8.13937C6.63219 8.1751 6.51744 8.1945 6.39802 8.19452L6.39805 8.39452ZM6.84756 8.16981C6.60322 7.8798 6.45593 7.50452 6.45587 7.09413L6.25587 7.09416C6.25594 7.55326 6.42091 7.97381 6.69461 8.29868L6.84756 8.16981ZM6.45587 7.09412C6.45574 6.68327 6.6032 6.30757 6.84763 6.01759L6.69472 5.88869C6.42088 6.21355 6.25573 6.63459 6.25587 7.09418L6.45587 7.09412ZM6.80282 5.85828C6.67532 5.81575 6.53891 5.79275 6.39734 5.7928L6.39741 5.9928C6.51716 5.99276 6.63219 6.0122 6.73953 6.048L6.80282 5.85828ZM6.39734 5.7928C5.91885 5.79297 5.50182 6.05587 5.2794 6.4449L5.45303 6.54416C5.64163 6.21428 5.99418 5.99295 6.39741 5.9928L6.39734 5.7928ZM5.41817 6.40908L4.94176 6.11945L4.83787 6.29035L5.31427 6.57998L5.41817 6.40908ZM4.9763 6.25511C5.26239 5.7623 5.79188 5.43218 6.39727 5.43203L6.39722 5.23203C5.71706 5.2322 5.12341 5.60335 4.80333 6.15469L4.9763 6.25511ZM6.39727 5.43203C6.68921 5.43195 6.96317 5.50849 7.2008 5.64284L7.29924 5.46874C7.0324 5.31788 6.72462 5.23194 6.39721 5.23203L6.39727 5.43203ZM7.29927 5.64283C7.53637 5.50867 7.81005 5.43214 8.10177 5.43203L8.1017 5.23203C7.77458 5.23215 7.46711 5.31806 7.20077 5.46876L7.29927 5.64283Z"/>
</svg>
