<svg fill="currentColor" width="100%" height="100%" viewBox="0 0 13 14" version="1.1" xmlns="http://www.w3.org/2000/svg" xmlns:xlink="http://www.w3.org/1999/xlink" preserveAspectRatio="xMidYMid meet" focusable="false">
  <style type="text/css">
    .st0{fill-rule:evenodd;clip-rule:evenodd;}
  </style>
  <g class="st0">
    <path d="M11.4467369,7.54718362 L7.29851349,8.88054116 L6.29849534,5.49159076 L10.4467188,4.15823322 L11.4467369,7.54718362 Z M12.4837928,7.73237217 L11.2152512,3.40821961 C11.1782135,3.28784705 11.0948787,3.18599335 10.9837656,3.12117736 C10.8726524,3.05636137 10.7430205,3.04710194 10.6226479,3.08413965 L5.56700058,4.71379886 C5.44662802,4.75083657 5.34477432,4.83417142 5.28921776,4.95454397 C5.2336612,5.0656571 5.22440177,5.19528908 5.26143948,5.31566164 L6.52998102,9.63055477 C6.56701873,9.76018675 6.65035358,9.86204045 6.7614667,9.91759702 C6.83554212,9.95463473 6.90961754,9.97315358 6.98369296,9.97315358 C7.0299901,9.97315358 7.07628723,9.96389416 7.12258437,9.95463473 L12.1689723,8.32497552 C12.2893448,8.28793781 12.3911985,8.20460296 12.4467551,8.09348984 C12.5023116,7.98237671 12.5208305,7.85274473 12.4837928,7.73237217 L12.4837928,7.73237217 Z"></path>
    <path d="M5.86330225,10.9176152 C6.24293877,10.9176152 6.56701873,11.2324357 6.59479701,11.6305911 C6.62257529,12.0287464 6.3540519,12.3898641 5.97441538,12.4546801 C5.60403829,12.5102367 5.24292062,12.2509727 5.15958578,11.8620768 C5.0669915,11.4639214 5.28921776,11.065766 5.65959485,10.9453935 C5.72441084,10.9268746 5.79848626,10.9176152 5.86330225,10.9176152 M11.2059918,10.241677 C11.1319164,9.99167244 10.8726524,9.8435216 10.6226479,9.91759702 L7.38184834,10.9546529 C7.22443807,10.6027946 6.96517411,10.3157524 6.62257529,10.1398233 C6.30775477,9.97315358 5.9466371,9.91759702 5.60403829,9.97315358 L2.77065353,0.343349165 C2.73361582,0.222976609 2.65028097,0.121122909 2.54842727,0.0563069175 C2.43731414,0.000750353525 2.29842273,-0.0177685011 2.17805018,0.0192692082 L0.353942996,0.611872557 C0.187273304,0.658169694 0.0576413214,0.797061103 0.0113441848,0.963730795 C-0.0256935245,1.13040049 0.0298630394,1.31558903 0.150235595,1.42670216 C0.279867577,1.55633414 0.465056124,1.59337185 0.622466388,1.53781529 L2.00212106,1.09336278 L4.75217098,10.4083467 C4.21512419,10.8990963 4.0484545,11.6861476 4.33549675,12.3806047 C4.60402014,13.0287646 5.20588291,13.42692 5.86330225,13.42692 C5.96515595,13.42692 6.06700966,13.4176605 6.17812278,13.3991417 C6.89109869,13.2509909 7.42814547,12.6583875 7.52073975,11.9268927 L10.9096901,10.8342803 C11.1504353,10.7509455 11.2800672,10.4916815 11.2059918,10.241677"></path>
  </g>
</svg>
