<svg focusable="false" height="100%" preserveAspectRatio="xMidYMid meet" version="1.1" viewBox="0 0 17 18"
     width="100%" xmlns="http://www.w3.org/2000/svg">
  <style type="text/css">
    .st0 {
      fill-rule: evenodd;
      clip-rule: evenodd;
    }
  </style>
  <g class="st0">
    <path
      d="M7.83755801,8.62687293 C7.83755801,8.22908287 8.25424309,7.93074033 8.62717127,7.93074033 L15.3398785,7.93074033 C15.7565635,7.93074033 15.9425304,8.2798011 15.9425304,8.62687293 L15.9425304,14.9666519 C15.9425304,15.3763757 15.6949061,15.6627845 15.3398785,15.6627845 L13.1023094,15.6627845 C12.9690497,15.6627845 12.8427514,15.7264309 12.7641878,15.8318453 L11.9835249,16.8730608 L11.2028619,15.8318453 C11.1242983,15.7264309 10.998,15.6627845 10.8647403,15.6627845 L8.62717127,15.6627845 C8.2621989,15.6627845 7.83755801,15.3594696 7.83755801,14.9666519 L7.83755801,8.62687293 Z M15.3398785,7.08543646 L8.62717127,7.08543646 C7.75601105,7.08543646 6.99225414,7.80543646 6.99225414,8.62687293 L6.99225414,14.9666519 C6.99225414,15.7880884 7.75601105,16.5080884 8.62717127,16.5080884 L10.6529171,16.5080884 L11.6454033,17.8307403 C11.7239669,17.9361547 11.8502652,17.9998011 11.9835249,17.9998011 C12.1167845,17.9998011 12.2430829,17.9361547 12.3216464,17.8307403 L13.3141326,16.5080884 L15.3398785,16.5080884 C16.1652928,16.5080884 16.7878343,15.845768 16.7878343,14.9666519 L16.7878343,8.62687293 C16.7878343,7.74775691 16.1652928,7.08543646 15.3398785,7.08543646 L15.3398785,7.08543646 Z"></path>
    <polygon points="5.12771271 8.67639779 5.97301657 8.67639779 5.97301657 7.83109392 5.12771271 7.83109392"></polygon>
    <path
      d="M11.6104972,13.8973923 C11.6194475,13.8973923 11.6293923,13.8973923 11.6333702,13.8963978 C11.7546961,13.8894365 11.8660773,13.8327514 11.940663,13.7392707 L14.9549171,9.97120442 L14.2945856,9.44313812 L11.5756906,12.8412597 L10.0103867,11.2759558 L9.41270718,11.8736354 L11.3121547,13.7730829 C11.3897238,13.8516464 11.499116,13.8973923 11.6104972,13.8973923"></path>
    <path
      d="M5.64265193,2.61049724 C4.77447514,2.61049724 3.84563536,3.19027624 3.72828729,4.48607735 L3.72331492,4.5358011 L4.56265193,4.61337017 L4.56762431,4.56364641 C4.66309392,3.50850829 5.47060773,3.4558011 5.63171271,3.4558011 C5.87933702,3.4558011 6.68983425,3.52044199 6.68983425,4.36176796 C6.68983425,4.81027624 6.42629834,5.02607735 6.02850829,5.35027624 L5.97281768,5.39502762 C5.59690608,5.69933702 5.12751381,6.07922652 5.12751381,6.76243094 L5.12751381,7.18508287 L5.97281768,7.18508287 L5.97281768,6.76243094 C5.97281768,6.48298343 6.18165746,6.31392265 6.4959116,6.05834254 L6.61226519,5.9638674 C7.03292818,5.62176796 7.55701657,5.19712707 7.55701657,4.36176796 C7.55701657,3.31359116 6.78729282,2.61049724 5.64265193,2.61049724"></path>
    <path
      d="M5.64364641,10.441989 C2.99834254,10.441989 0.845303867,8.28895028 0.845303867,5.64364641 C0.845303867,2.99834254 2.99834254,0.845303867 5.64364641,0.845303867 C8.28895028,0.845303867 10.441989,2.99834254 10.441989,5.64364641 C10.441989,5.87635359 10.6319337,6.06629834 10.8646409,6.06629834 C11.0973481,6.06629834 11.2872928,5.87635359 11.2872928,5.64364641 C11.2872928,2.5319337 8.75535912,0 5.64364641,0 C2.5319337,0 -1.02072214e-15,2.5319337 -1.02072214e-15,5.64364641 C-1.02072214e-15,8.75535912 2.5319337,11.2872928 5.64364641,11.2872928 C5.87635359,11.2872928 6.06629834,11.0973481 6.06629834,10.8646409 C6.06629834,10.6309392 5.87635359,10.441989 5.64364641,10.441989"></path>
  </g>
</svg>
