<svg focusable="false" height="100%" preserveAspectRatio="xMidYMid meet" version="1.1" viewBox="0 0 16 16"
     width="100%" xmlns="http://www.w3.org/2000/svg">
  <style type="text/css">
    .st0 {
      fill-rule: evenodd;
      clip-rule: evenodd;
    }
  </style>
  <g class="st0" id="ficheClient">
    <path
      d="M15.2724472,13.6128913 C15.2724472,13.8517377 15.0690824,14.0449224 14.8176496,14.0449224 L5.72662846,14.0449224 C5.47642818,14.0449224 5.2718309,13.8517377 5.2718309,13.6128913 C5.2718309,13.3752157 5.47642818,13.1820311 5.72662846,13.1820311 L14.8176496,13.1820311 C15.0690824,13.1820311 15.2724472,13.3752157 15.2724472,13.6128913 M15.2724472,8 C15.2724472,8.23884644 15.0690824,8.43203106 14.8176496,8.43203106 L5.72662846,8.43203106 C5.47642818,8.43203106 5.2718309,8.23884644 5.2718309,8 C5.2718309,7.76115356 5.47642818,7.56796894 5.72662846,7.56796894 L14.8176496,7.56796894 C15.0690824,7.56796894 15.2724472,7.76115356 15.2724472,8 M15.2724472,2.38593789 C15.2724472,2.62478432 15.0690824,2.81796894 14.8176496,2.81796894 L5.72662846,2.81796894 C5.47642818,2.81796894 5.2718309,2.62478432 5.2718309,2.38593789 C5.2718309,2.14826226 5.47642818,1.95507764 5.72662846,1.95507764 L14.8176496,1.95507764 C15.0690824,1.95507764 15.2724472,2.14826226 15.2724472,2.38593789 M2.09071301,14.4769534 C1.58784741,14.4769534 1.18111789,14.0905842 1.18111789,13.6128913 C1.18111789,13.1363692 1.58784741,12.75 2.09071301,12.75 C2.59234609,12.75 2.99907561,13.1363692 2.99907561,13.6128913 C2.99907561,14.0905842 2.59234609,14.4769534 2.09071301,14.4769534 M2.09071301,11.8859379 C1.08621433,11.8859379 0.272755284,12.6598472 0.272755284,13.6128913 C0.272755284,14.5671062 1.08621433,15.3410155 2.09071301,15.3410155 C3.09521168,15.3410155 3.90867073,14.5671062 3.90867073,13.6128913 C3.90867073,12.6598472 3.09521168,11.8859379 2.09071301,11.8859379 M2.09071301,8.8628913 C1.58784741,8.8628913 1.18111789,8.47652206 1.18111789,8 C1.18111789,7.52230712 1.58784741,7.13593789 2.09071301,7.13593789 C2.59234609,7.13593789 2.99907561,7.52230712 2.99907561,8 C2.99907561,8.47652206 2.59234609,8.8628913 2.09071301,8.8628913 M2.09071301,6.27304659 C1.08621433,6.27304659 0.272755284,7.04578506 0.272755284,8 C0.272755284,8.95421494 1.08621433,9.72695341 2.09071301,9.72695341 C3.09521168,9.72695341 3.90867073,8.95421494 3.90867073,8 C3.90867073,7.04578506 3.09521168,6.27304659 2.09071301,6.27304659 M2.09071301,3.25 C1.58784741,3.25 1.18111789,2.86363076 1.18111789,2.38593789 C1.18111789,1.90941582 1.58784741,1.52304659 2.09071301,1.52304659 C2.59234609,1.52304659 2.99907561,1.90941582 2.99907561,2.38593789 C2.99907561,2.86363076 2.59234609,3.25 2.09071301,3.25 M2.09071301,0.658984471 C1.08621433,0.658984471 0.272755284,1.43289376 0.272755284,2.38593789 C0.272755284,3.34015282 1.08621433,4.11406211 2.09071301,4.11406211 C3.09521168,4.11406211 3.90867073,3.34015282 3.90867073,2.38593789 C3.90867073,1.43289376 3.09521168,0.658984471 2.09071301,0.658984471"
      id="Fill-1"></path>
  </g>
</svg>
