<svg fill="none" height="9" viewBox="0 0 48 9" width="48" xmlns="http://www.w3.org/2000/svg">
  <path clip-rule="evenodd"
        d="M5.66537 5.51097L6.91749 6.22823C6.29157 7.37941 5.06962 8.12684 3.68613 8.12684C1.66629 8.12684 0 6.58151 0 4.41027C0 2.23902 1.66629 0.693695 3.68613 0.693695C5.06962 0.693695 6.29184 1.44112 6.91749 2.59257L5.66537 3.30956C5.30167 2.56213 4.56466 2.10791 3.68613 2.10791C2.42359 2.10791 1.46441 3.04679 1.46441 4.41027C1.46441 5.77374 2.42359 6.71289 3.68613 6.71289C4.56466 6.71289 5.30167 6.2584 5.66537 5.51097ZM13.6334 7.94499V4.91523H10.0987V7.94499H8.68498V0.875546H10.0987V3.50156H13.6334V0.875546H15.0473V7.94499H13.6334ZM21.834 5.01616L20.5511 2.03715L19.2686 5.01616H21.834ZM24.6413 7.94499H23.096L22.3993 6.32889H18.703L18.0063 7.94499H16.461L19.5917 0.875546H21.5106L24.6413 7.94499ZM31.155 7.94499L27.3677 2.38055V7.94499H26.0549V0.875546H27.9234L31.1046 5.56144V0.875546H32.4176V7.94499H31.155ZM35.144 7.94499V0.875546H40.1936V2.18855H36.4567V3.70343H39.6883V5.01616H36.4567V6.63225H40.3954V7.94499H35.144ZM42.6679 7.94499V0.875546H44.0816V6.53132H47.8179V7.94499H42.6679Z"
        fill="black"
        fill-rule="evenodd"/>
</svg>
