<svg fill="currentColor" height="100%" stroke-width="1.5" viewBox="0 0 14 13" width="100%"
     xmlns="http://www.w3.org/2000/svg">
  <path
    d="M13.2517013,5.35869544 L12.0174151,11.6105068 L1.98236473,11.6105068 L0.748078547,5.35869544 L3.6033701,5.35869544 L3.6033701,6.74570445 L4.36341174,6.74570445 L4.36341174,5.35869544 L9.63636806,5.35869544 L9.63636806,6.74570445 L10.0105836,6.74570445 L10.3964097,6.74570445 L10.3964097,5.35869544 L13.2517013,5.35869544 Z M4.32054218,3.39294733 C4.32054218,2.01486949 5.51999684,0.677874974 6.9998899,0.677874974 C8.47531738,0.677874974 9.67923762,2.01486949 9.67923762,3.39294733 L9.67923762,4.46557954 L4.32054218,4.46557954 L4.32054218,3.39294733 Z M10.3892648,3.31078067 C10.3892648,1.48525175 8.87275396,0 7.00792794,0 C5.13863635,0 3.61765996,1.48525175 3.61765996,3.31078067 L3.61765996,4.41735128 L0.715033258,4.41735128 C0.267582189,4.41735128 -0.0691225085,4.8228259 0.0121510391,5.26223893 L1.25358215,11.920418 C1.31699338,12.2580158 1.61172163,12.5036227 1.95557125,12.5036227 L12.0495672,12.5036227 C12.39431,12.5036227 12.6899313,12.2580158 12.7524495,11.9195249 L13.9876288,5.26223893 C14.0697954,4.8228259 13.7321976,4.41735128 13.2856397,4.41735128 L10.3892648,4.41735128 L10.3892648,3.31078067 Z"></path>
</svg>
