<svg fill="currentColor" stroke="none" viewBox="0 0 24 24" xmlns="http://www.w3.org/2000/svg">
  <path d="M12.8333333,8.33333333 C10.3033333,8.33333333 8.25,10.3866667 8.25,12.9166667 C8.25,15.4466667 10.3033333,17.5 12.8333333,17.5 C15.3633333,17.5 17.4166667,15.4466667 17.4166667,12.9166667 C17.4166667,10.3866667 15.3633333,8.33333333 12.8333333,8.33333333 Z M0,2.38416667 C0,1.72416667 0.669166667,1.28416667 1.27416667,1.53166667 L1.27416667,1.53166667 L13.09,6.50916667 C13.0075,6.50916667 12.925,6.5 12.8333333,6.5 C9.295,6.5 6.41666667,9.37833333 6.41666667,12.9166667 L6.41666667,12.9166667 L6.41666667,12.9625 L1.27416667,15.1258333 C0.669166667,15.3825 0,14.9425 0,14.2825 L0,14.2825 L0,10.8816667 C0,10.46 0.284166667,10.0933333 0.696666667,9.9925 L0.696666667,9.9925 L7.33333333,8.33333333 L0.696666667,6.67416667 C0.284166667,6.57333333 0,6.20666667 0,5.785 L0,5.785 Z M12.8241667,10.1666667 C13.0808333,10.1666667 13.2825,10.3683333 13.2825,10.625 L13.2825,12.7241667 L14.6575,14.0991667 C14.8179167,14.2595833 14.8379688,14.4972005 14.7176563,14.6769173 L14.6575,14.75 C14.4833333,14.9333333 14.1991667,14.9333333 14.0158333,14.75 L12.5033333,13.2375 C12.4208333,13.155 12.3658333,13.0358333 12.3658333,12.9166667 L12.3658333,10.625 C12.3658333,10.3968519 12.5251749,10.2121605 12.7408493,10.1739346 L12.8241667,10.1666667 Z"></path>
</svg>
