<svg width="100%" height="100%" viewBox="0 0 15 18" version="1.1" xmlns="http://www.w3.org/2000/svg" xmlns:xlink="http://www.w3.org/1999/xlink"  preserveAspectRatio="xMidYMid meet" focusable="false">
    <style type="text/css">
        .st0{fill-rule:evenodd;clip-rule:evenodd;}
    </style>
    <g class="st0">
        <path d="M5.75902933,7.66732141 C6.33577906,7.66732141 6.89302879,7.75357137 7.41877855,7.9125713 C7.68277843,7.99282126 7.7285284,8.34457109 7.49902851,8.49757102 L7.49902851,8.49757102 L7.48777852,8.50507102 C7.40902855,8.55757099 7.3092786,8.57182099 7.21852864,8.544821 C6.75577886,8.40457107 6.26602909,8.3288211 5.75902933,8.3288211 C5.44177947,8.3288211 5.10652963,8.36407108 4.78852978,8.41807106 C3.64253032,8.65057095 2.6187808,9.25807067 1.86053115,10.1513202 C1.14878148,11.0198198 0.719031685,12.0833193 0.652281716,13.2045688 C0.642531721,13.3763187 0.503031786,13.5113187 0.331281867,13.5113187 L0.331281867,13.5113187 L0.321531871,13.5113187 C0.136281958,13.5113187 -0.00996797372,13.3553187 0.000532021368,13.1700688 C0.074031987,11.8995694 0.557031761,10.69057 1.36628138,9.72232045 C2.21303099,8.72182092 3.37778044,8.02507124 4.66552984,7.77457136 C5.01802967,7.70332139 5.3885295,7.66732141 5.75902933,7.66732141 Z M5.75902933,0 C7.62877845,0 9.14602774,1.51949929 9.14602774,3.4139984 C9.14602774,5.30849752 7.62877845,6.8452468 5.75902933,6.8452468 C3.8892802,6.8452468 2.37203091,5.32574751 2.37203091,3.43199839 C2.37203091,1.53749928 3.8892802,0 5.75902933,0 Z M5.75902933,0.66149969 C4.25978003,0.66149969 3.0425306,1.89449911 3.0425306,3.4139984 C3.0425306,4.93274769 4.25978003,6.16574711 5.75902933,6.16574711 C7.25827862,6.16574711 8.47552805,4.93274769 8.47552805,3.4139984 C8.47552805,1.89449911 7.25827862,0.66149969 5.75902933,0.66149969 Z M10.1085023,8.543621 C9.77475245,8.543621 9.50325257,8.81512087 9.50325257,9.14887072 L9.50325257,9.14887072 L9.50325257,9.65137048 C9.50325257,9.78262042 9.41925261,9.89287037 9.27450268,9.95362034 L9.27450268,9.95362034 C9.14400274,10.0091203 9.00525281,9.98737032 8.91300285,9.89437037 L8.91300285,9.89437037 L8.55900302,9.53737054 C8.33100312,9.30862064 7.93050331,9.30937064 7.70400342,9.53737054 L7.70400342,9.53737054 L7.08375371,10.1576202 C6.84750382,10.3931201 6.84750382,10.77637 7.08375371,11.0126198 L7.08375371,11.0126198 L7.44000354,11.3688697 C7.53450349,11.4626196 7.55325349,11.5998696 7.49250351,11.7453695 L7.49250351,11.7453695 C7.43925354,11.8751194 7.32525359,11.9576194 7.19700365,11.9576194 L7.19700365,11.9576194 L6.69225389,11.9576194 C6.36000404,11.9576194 6.08925417,12.2276193 6.08925417,12.5598691 L6.08925417,12.5598691 L6.08925417,13.4351187 C6.08925417,13.7688686 6.36075404,14.0403684 6.69450389,14.0403684 L6.69450389,14.0403684 L7.19700365,14.0403684 C7.32900359,14.0403684 7.44000354,14.1243684 7.50000351,14.2706183 L7.50000351,14.2706183 C7.55475349,14.3996183 7.5315035,14.5383682 7.44000354,14.6298682 L7.44000354,14.6298682 L7.08375371,14.984618 C6.96975376,15.0986179 6.90675379,15.2501179 6.90675379,15.4121178 L6.90675379,15.4121178 C6.90675379,15.5733677 6.96900376,15.7263676 7.08375371,15.8403676 L7.08375371,15.8403676 L7.70400342,16.4606173 C7.93875331,16.6961172 8.32200313,16.6953672 8.55825302,16.4606173 L8.55825302,16.4606173 L8.91450285,16.1036175 C8.97375282,16.0458675 9.04800279,16.0173675 9.13050275,16.0173675 L9.13050275,16.0173675 C9.18150272,16.0173675 9.2355027,16.0278675 9.29025267,16.0511175 L9.29025267,16.0511175 C9.42150261,16.1043675 9.50325257,16.2183674 9.50325257,16.3473673 L9.50325257,16.3473673 L9.50325257,16.8521171 C9.50325257,17.184367 9.77325245,17.4543668 10.1055023,17.4543668 L10.1055023,17.4543668 L10.9807519,17.4543668 C11.3152517,17.4543668 11.5867516,17.182867 11.5867516,16.8483671 L11.5867516,16.8483671 L11.5867516,16.3473673 C11.5867516,16.2146174 11.6700016,16.1043675 11.8147515,16.0443675 L11.8147515,16.0443675 C11.9445014,15.9896175 12.0862514,16.0136175 12.1762513,16.1036175 L12.1762513,16.1036175 L12.5310012,16.4598673 C12.758251,16.6886172 13.1587509,16.6878672 13.3867508,16.4606173 L13.3867508,16.4606173 L14.0070005,15.8403676 C14.2417504,15.6048677 14.2410004,15.2208679 14.0062505,14.984618 L14.0062505,14.984618 L13.6500006,14.6283682 C13.5585007,14.5383682 13.5367507,14.4003683 13.5907507,14.2683683 L13.5907507,14.2683683 L13.6050007,14.2346183 C13.6620006,14.1138684 13.7707506,14.0403684 13.8937505,14.0403684 L13.8937505,14.0403684 L14.3977503,14.0403684 C14.7300001,14.0403684 15,13.7703686 15,13.4388687 L15,13.4388687 L15,12.5621191 C15,12.2291193 14.7285001,11.9576194 14.3947503,11.9576194 L14.3947503,11.9576194 L13.8937505,11.9576194 C13.7602506,11.9576194 13.6500006,11.8736194 13.5900007,11.7273695 L13.5900007,11.7273695 C13.5352507,11.5983696 13.5577507,11.4596196 13.6500006,11.3673697 L13.6500006,11.3673697 L14.0055005,11.0126198 C14.1202504,10.8986199 14.1840004,10.74712 14.1840004,10.58587 L14.1840004,10.58587 C14.1840004,10.4238701 14.1217504,10.2723702 14.0070005,10.1583702 L14.0070005,10.1583702 L13.3867508,9.53737054 C13.1512509,9.30187065 12.767251,9.30187065 12.5310012,9.53737054 L12.5310012,9.53737054 L12.1747513,9.89437037 C12.0810014,9.98812032 11.9445014,10.0068703 11.7982515,9.94762034 L11.7982515,9.94762034 C11.6700016,9.89437037 11.5867516,9.77812042 11.5867516,9.65137048 L11.5867516,9.65137048 L11.5867516,9.14587072 C11.5867516,8.81362087 11.3167517,8.543621 10.9845019,8.543621 L10.9845019,8.543621 L10.1085023,8.543621 Z M9.51075257,10.4823701 C9.85800241,10.3391202 10.0815023,10.0128703 10.0815023,9.65137048 L10.0815023,9.65137048 L10.0815023,9.12262073 L11.0077519,9.12262073 L11.0077519,9.65137048 C11.0077519,10.0121203 11.2357518,10.3406202 11.5897516,10.4861201 L11.5897516,10.4861201 C11.9377514,10.63162 12.3277513,10.5596201 12.5842511,10.3038702 L12.5842511,10.3038702 L12.959251,9.92812035 L13.6147506,10.58512 L13.2412508,10.9571199 C12.9832509,11.2136198 12.912751,11.6096196 13.0620009,11.9651194 L13.0620009,11.9651194 C13.2052508,12.3123692 13.5307507,12.5358691 13.8937505,12.5358691 L13.8937505,12.5358691 L14.4217503,12.5358691 L14.4217503,13.4621187 L13.8937505,13.4621187 C13.5375007,13.4621187 13.2172508,13.6766186 13.0710009,14.0111184 L13.0710009,14.0111184 L13.0710009,14.0478684 L13.0447509,14.0741184 C12.915751,14.4146183 12.9907509,14.7888681 13.2405008,15.037868 L13.2405008,15.037868 L13.6162506,15.4121178 L12.958501,16.0698675 L12.5865011,15.6963677 C12.3262513,15.4346178 11.9392514,15.3648678 11.5792516,15.5156177 L11.5792516,15.5156177 C11.2312518,15.6596177 11.0077519,15.9851175 11.0077519,16.3473673 L11.0077519,16.3473673 L11.0077519,16.8753671 L10.0815023,16.8753671 L10.0815023,16.3473673 C10.0815023,15.9851175 9.85275241,15.6573677 9.50025257,15.5111177 L9.50025257,15.5111177 C9.15225274,15.3656178 8.76150292,15.4383678 8.50575304,15.6941177 L8.50575304,15.6941177 L8.13075322,16.0691175 L7.47450352,15.4128678 L7.84800335,15.040868 C8.10600323,14.7836181 8.17650319,14.3883683 8.02800326,14.0328684 L8.02800326,14.0328684 C7.88475333,13.6856186 7.55850348,13.4621187 7.19700365,13.4621187 L7.19700365,13.4621187 L6.6682539,13.4621187 L6.6682539,12.5358691 L7.19700365,12.5358691 C7.55850348,12.5358691 7.88700333,12.3078692 8.03175326,11.9538694 L8.03175326,11.9538694 C8.17800319,11.6066196 8.10525323,11.2166197 7.84950335,10.9593699 L7.84950335,10.9593699 L7.47450352,10.58512 L8.13075322,9.92812035 L8.50275304,10.3016202 C8.67300296,10.4718701 8.89500286,10.5611201 9.12900275,10.5611201 L9.12900275,10.5611201 C9.25500269,10.5611201 9.38475263,10.5348701 9.51075257,10.4823701 L9.51075257,10.4823701 Z M9.09825276,12.9993689 C9.09825276,13.7958685 9.74775246,14.4453682 10.5450021,14.4453682 L10.5450021,14.4453682 C11.3430017,14.4453682 11.9910014,13.7958685 11.9910014,12.9993689 L11.9910014,12.9993689 C11.9910014,12.2013693 11.3430017,11.5526196 10.5450021,11.5526196 L10.5450021,11.5526196 C9.74775246,11.5526196 9.09825276,12.2013693 9.09825276,12.9993689 L9.09825276,12.9993689 Z M9.67650249,12.9993689 C9.67650249,12.5208691 10.0665023,12.1308693 10.5450021,12.1308693 L10.5450021,12.1308693 C11.0235019,12.1308693 11.4127517,12.5208691 11.4127517,12.9993689 L11.4127517,12.9993689 C11.4127517,13.4778687 11.0235019,13.8671185 10.5450021,13.8671185 L10.5450021,13.8671185 C10.0665023,13.8671185 9.67650249,13.4778687 9.67650249,12.9993689 L9.67650249,12.9993689 Z"></path>
    </g>
</svg>
