<svg fill="none" height="18" stroke="currentColor" viewBox="0 0 19 18" width="19" xmlns="http://www.w3.org/2000/svg">
  <path clip-rule="evenodd" d="M16.799 5.62893V13.5957V13.6977L16.7029 13.6662C16.071 13.4592 15.0539 13.2134 13.7968 13.2134C13.4658 13.2134 13.1194 13.2332 12.7657 13.2714L12.1045 13.3425L12.7341 13.129C13.3631 12.9147 14.0228 12.8068 14.6957 12.8068C15.2307 12.8068 15.5933 12.8787 15.66 12.8934C15.6967 12.9022 15.7305 12.9066 15.765 12.9066C15.8626 12.9066 15.958 12.8729 16.0343 12.8127C16.14 12.7298 16.2002 12.605 16.2002 12.4714V5.21284V5.04772L16.3227 5.15853C16.4761 5.2965 16.628 5.4374 16.7755 5.57536L16.799 5.59738V5.62893ZM10.255 13.5444V13.3924V5.60325V5.5739L10.2755 5.55262C10.6527 5.1578 12.0713 3.86987 14.4732 3.86987C14.7315 3.86987 14.9979 3.88529 15.2658 3.91464L15.3311 3.92198V3.98803V11.8866V11.9666L15.2511 11.96C15.0713 11.9445 14.8849 11.9372 14.6963 11.9372C13.7937 11.9372 12.0317 12.1331 10.3746 13.4497L10.255 13.5444ZM9.34225 5.65682V5.69792V13.7946V13.9017L9.24245 13.8636C8.11597 13.4321 6.94326 13.2134 5.75808 13.2134C4.50024 13.2134 3.48311 13.4592 2.85199 13.6654L2.75585 13.697V13.5957V5.62893V5.59738L2.77934 5.57536C3.68932 4.72335 4.70939 4.29184 5.81018 4.29184C7.42467 4.29184 8.79773 5.2055 9.3129 5.59811L9.34225 5.62013V5.65682ZM16.2371 4.09749L16.2004 4.07621V4.03364V3.54636C16.2004 3.33281 16.0478 3.15228 15.8379 3.11705C15.377 3.03926 14.9176 2.99963 14.4729 2.99963C12.0409 2.99963 10.5013 4.12684 9.80043 4.79833L9.75566 4.84016L9.70576 4.8042C8.99758 4.28756 7.54968 3.4216 5.81043 3.4216C4.40875 3.4216 3.1311 3.98814 2.01343 5.10581C1.93124 5.18801 1.88574 5.29735 1.88574 5.4133V14.3392C1.88574 14.4882 1.965 14.6291 2.09122 14.7076C2.16094 14.7509 2.2402 14.773 2.32166 14.773C2.38844 14.773 2.45522 14.7583 2.51466 14.7282C2.52787 14.7216 3.84882 14.0839 5.75832 14.0839C7.07267 14.0839 8.36206 14.3781 9.59128 14.9579C9.61843 14.9704 9.64558 14.9799 9.67641 14.9872C9.7197 14.996 9.74832 15.0005 9.77768 15.0005C9.8063 14.999 9.82831 14.9961 9.85033 14.9931C9.93839 14.9858 10.0154 14.9564 10.0793 14.9095C11.2865 14.3591 12.5326 14.0839 13.7963 14.0839C15.6801 14.0839 16.9835 14.7018 17.0385 14.7275C17.0994 14.7583 17.1669 14.7737 17.2337 14.7737C17.3144 14.7737 17.3944 14.7517 17.4627 14.7091C17.5918 14.6291 17.6696 14.4904 17.6696 14.3392V5.4133C17.6696 5.29882 17.6226 5.18727 17.5419 5.10581C17.1368 4.70146 16.698 4.36241 16.2371 4.09749Z" fill="#1D1D1D" fill-rule="evenodd"/>
  <mask height="12" id="mask0_4165_483" maskUnits="userSpaceOnUse" style="mask-type:luminance" width="17" x="1" y="3">
    <path clip-rule="evenodd" d="M1.88574 2.99994H17.6695V15H1.88574V2.99994Z" fill="white" fill-rule="evenodd"/>
  </mask>
  <g mask="url(#mask0_4165_483)">
  </g>
  <path d="M7.77564 9.92514C7.67321 10.0788 7.56651 10.209 7.45554 10.3157C7.34457 10.4224 7.22079 10.5099 7.08422 10.5782C6.95191 10.6422 6.80466 10.6891 6.64247 10.719C6.48029 10.7489 6.29889 10.7638 6.0983 10.7638C5.8166 10.7638 5.56052 10.7211 5.33005 10.6358C5.10384 10.5504 4.90964 10.4288 4.74746 10.2709C4.58527 10.1129 4.45936 9.92727 4.36973 9.71387C4.28011 9.4962 4.23529 9.25719 4.23529 8.99684C4.23529 8.73649 4.28011 8.49961 4.36973 8.28621C4.45936 8.06854 4.58314 7.88288 4.74105 7.72923C4.90324 7.57131 5.0953 7.44967 5.31724 7.36431C5.53918 7.27895 5.78246 7.23627 6.04708 7.23627C6.31597 7.23627 6.56138 7.27681 6.78332 7.35791C7.00526 7.439 7.19518 7.5521 7.3531 7.69722C7.51102 7.84233 7.63479 8.01732 7.72442 8.22219C7.81405 8.42705 7.861 8.65326 7.86527 8.90081C7.86527 8.92215 7.86527 8.96696 7.86527 9.03525C7.86527 9.09927 7.86314 9.16116 7.85887 9.22091H4.97793C5.00354 9.37029 5.05262 9.50047 5.12518 9.61144C5.19774 9.71814 5.2831 9.80777 5.38126 9.88033C5.4837 9.94861 5.5968 9.99983 5.72057 10.034C5.84435 10.0681 5.97025 10.0852 6.0983 10.0852C6.35011 10.0852 6.56138 10.0382 6.7321 9.94435C6.90282 9.84618 7.02446 9.72454 7.09702 9.57943L7.77564 9.92514ZM6.04708 7.89568C5.81234 7.89568 5.59893 7.95757 5.40687 8.08134C5.21481 8.20085 5.0825 8.38437 5.00994 8.63192H7.07781C7.00952 8.40998 6.88789 8.23286 6.71289 8.10055C6.5379 7.96397 6.31597 7.89568 6.04708 7.89568Z" fill="black"/>
</svg>
