<svg width="13" height="12" viewBox="0 0 13 12" fill="none" xmlns="http://www.w3.org/2000/svg">
<path fill-rule="evenodd" clip-rule="evenodd" d="M10.072 5.64614H9.49272C9.38188 5.64614 9.28607 5.56899 9.26287 5.46084C9.19842 5.16218 9.08169 4.88074 8.91606 4.62427C8.85606 4.53116 8.86917 4.40871 8.94766 4.33057L9.35699 3.92073L8.85707 3.42055L8.44748 3.83014C8.36916 3.90846 8.24681 3.92148 8.15362 3.86148C7.89688 3.69593 7.61545 3.57947 7.31722 3.51502C7.20915 3.49174 7.13158 3.39602 7.13158 3.28502V2.70568H6.42426V3.28502C6.42426 3.39586 6.34678 3.49166 6.23863 3.51502C5.94022 3.57947 5.65879 3.69594 5.40222 3.86148C5.30911 3.92148 5.18684 3.90862 5.10836 3.83014L4.69877 3.42055L4.19885 3.92073L4.60818 4.33023C4.6865 4.40888 4.69978 4.53115 4.63978 4.62427C4.47415 4.88109 4.35751 5.16243 4.29297 5.46084C4.26986 5.56899 4.17398 5.64614 4.06297 5.64614H3.48397V6.35381H4.06297C4.1739 6.35381 4.26978 6.43103 4.29297 6.53944C4.35751 6.83759 4.47415 7.11902 4.63978 7.37584C4.69978 7.4687 4.68667 7.5914 4.60818 7.66971L4.19885 8.07903L4.69877 8.57921L5.10836 8.16945C5.18676 8.0913 5.30903 8.07827 5.40222 8.13811C5.6592 8.30391 5.94063 8.42038 6.23863 8.48483C6.34678 8.50811 6.42426 8.60382 6.42426 8.71468V9.29402H7.13158V8.71468C7.13158 8.60409 7.20915 8.50803 7.31722 8.48483C7.61562 8.42038 7.89705 8.3039 8.15362 8.13811C8.24673 8.07828 8.36918 8.09113 8.44748 8.16945L8.85707 8.57921L9.35699 8.07903L8.94766 7.66971C8.86934 7.59139 8.85606 7.46878 8.91606 7.37584C9.08169 7.11887 9.19842 6.83744 9.26261 6.53944C9.28614 6.43103 9.38186 6.35381 9.49269 6.35381H10.072L10.072 5.64614ZM10.5424 5.41083V6.58909C10.5424 6.71893 10.437 6.8244 10.3071 6.8244H9.67657C9.61304 7.04835 9.52379 7.26348 9.41034 7.46701L9.85631 7.91291C9.94807 8.00493 9.94807 8.15384 9.85631 8.2457L9.02335 9.07866C8.97898 9.12286 8.9194 9.14756 8.85696 9.14756C8.79435 9.14756 8.73452 9.12286 8.69031 9.07866L8.24442 8.63276C8.04097 8.74637 7.82575 8.83528 7.6018 8.89889V9.52965C7.6018 9.65949 7.49643 9.76496 7.3665 9.76496H6.18866C6.05858 9.76496 5.95335 9.65958 5.95335 9.52965V8.89889C5.7294 8.83562 5.51427 8.74637 5.31074 8.63276L4.86478 9.07866C4.77276 9.17067 4.62394 9.17067 4.53191 9.07866L3.69895 8.2457C3.655 8.20175 3.63004 8.14175 3.63004 8.07931C3.63004 8.01687 3.655 7.95678 3.69895 7.91292L4.14508 7.46678C4.03147 7.26342 3.94222 7.04838 3.87869 6.82443H3.24816C3.11833 6.82443 3.01286 6.71905 3.01286 6.58912V5.41085C3.01286 5.28102 3.11824 5.17548 3.24816 5.17548H3.87869C3.94222 4.95162 4.03146 4.73649 4.14508 4.53313L3.69895 4.08699C3.655 4.04262 3.63004 3.98304 3.63004 3.92052C3.63004 3.85825 3.655 3.79825 3.69895 3.7543L4.53191 2.92134C4.62392 2.82932 4.77274 2.82932 4.86478 2.92134L5.31074 3.36723C5.51419 3.25362 5.7294 3.16463 5.95335 3.10127V2.47034C5.95335 2.3405 6.05856 2.23503 6.18866 2.23503H7.3665C7.49633 2.23503 7.6018 2.34041 7.6018 2.47034V3.10127C7.82575 3.1648 8.04088 3.25379 8.24442 3.36723L8.69031 2.92134C8.73452 2.87697 8.79427 2.85234 8.85696 2.85234C8.91939 2.85234 8.97898 2.87705 9.02335 2.92134L9.85631 3.7543C9.94807 3.84606 9.94807 3.99522 9.85631 4.08708L9.41034 4.53321C9.52379 4.73658 9.61312 4.95162 9.67657 5.17557H10.3071C10.437 5.1754 10.5424 5.28095 10.5424 5.41088V5.41083ZM8.13725 6C8.13725 6.74969 7.52732 7.35928 6.77774 7.35928C6.02816 7.35928 5.41823 6.7496 5.41823 6C5.41823 5.25049 6.02816 4.64041 6.77774 4.64041C7.52742 4.64041 8.13725 5.25034 8.13725 6ZM8.60785 6C8.60785 7.00892 7.78691 7.82979 6.77774 7.82979C5.76857 7.82979 4.94763 7.00903 4.94763 6C4.94763 4.99083 5.76857 4.16981 6.77774 4.16981C7.78691 4.16981 8.60785 4.99083 8.60785 6ZM3.62695 1.45582C4.55487 0.811275 5.64429 0.470682 6.77774 0.470682C8.01852 0.470682 9.20246 0.879859 10.169 1.63281L10.0711 1.62483C9.94164 1.61458 9.82819 1.71122 9.81785 1.84071C9.80751 1.97038 9.90398 2.08374 10.0336 2.09415L10.8349 2.15836C10.8414 2.15886 10.8477 2.15911 10.8538 2.15911C10.916 2.15911 10.976 2.13458 11.0203 2.09046C11.0689 2.04155 11.0937 1.97398 11.0884 1.90508L11.024 1.10355C11.0135 0.973882 10.9001 0.877403 10.7706 0.887751C10.6413 0.897919 10.5449 1.01128 10.5552 1.14102L10.5721 1.35245C9.50288 0.477136 8.17344 0 6.77769 0C5.54775 0 4.36565 0.369592 3.3582 1.06943C3.25156 1.14355 3.22518 1.29011 3.29938 1.39701C3.37341 1.50348 3.52014 1.53003 3.62687 1.45583L3.62695 1.45582ZM9.92831 10.5442C9.00039 11.1886 7.91104 11.5293 6.77774 11.5293C5.53696 11.5293 4.35302 11.1201 3.38644 10.3672L3.48442 10.3752C3.61409 10.386 3.72728 10.2888 3.73763 10.1594C3.74797 10.0297 3.6515 9.91626 3.52201 9.90594L2.72022 9.8419C2.65156 9.83627 2.58375 9.86115 2.53509 9.90989C2.48643 9.9588 2.46148 10.0264 2.46694 10.0953L2.53139 10.8966C2.54131 11.0197 2.64417 11.1131 2.76543 11.1131C2.77182 11.1131 2.77821 11.1128 2.78451 11.1123C2.91417 11.102 3.01065 10.9886 3.0003 10.8589L2.98341 10.6474C4.05258 11.5228 5.38189 12 6.77787 12C8.0078 12 9.19011 11.6304 10.1973 10.9306C10.304 10.8565 10.3304 10.7099 10.2562 10.603C10.1821 10.4964 10.0356 10.47 9.9286 10.5442L9.92831 10.5442ZM11.6368 9.77729L11.4253 9.79426C12.3007 8.72533 12.7779 7.39557 12.7779 5.99981C12.7779 4.77013 12.408 3.58778 11.7084 2.58076C11.6343 2.47387 11.4877 2.44765 11.3808 2.52177C11.2739 2.59588 11.2477 2.74262 11.3219 2.84926C11.9667 3.77735 12.3073 4.86676 12.3073 6.00004C12.3073 7.24108 11.8982 8.42477 11.1452 9.39134L11.1529 9.29361C11.1633 9.1642 11.0668 9.05049 10.9371 9.04017C10.8075 9.03008 10.6943 9.12655 10.6839 9.25596L10.6195 10.0576C10.614 10.1262 10.639 10.1937 10.6876 10.2426C10.732 10.287 10.7919 10.3116 10.854 10.3116C10.8604 10.3116 10.8665 10.3111 10.8728 10.3107L11.6745 10.2463C11.8039 10.2361 11.9006 10.1227 11.89 9.99296C11.8797 9.86372 11.7662 9.76716 11.6368 9.7774L11.6368 9.77729ZM2.40261 2.70641L2.41034 2.60868C1.65739 3.57534 1.24821 4.75914 1.24821 5.99977C1.24821 7.13307 1.58889 8.22248 2.23376 9.15055C2.30788 9.25745 2.2815 9.404 2.1746 9.47813C2.13368 9.50653 2.08679 9.52032 2.04065 9.52032C1.9662 9.52032 1.89292 9.48502 1.8472 9.41914C1.1476 8.41214 0.777771 7.22976 0.777771 5.99965C0.777771 4.60383 1.25493 3.2744 2.13031 2.2052L1.9188 2.22243C1.78938 2.23268 1.67594 2.13604 1.66567 2.00655C1.65492 1.87688 1.75156 1.76343 1.88106 1.7531L2.68268 1.6889C2.75133 1.68327 2.81907 1.70814 2.86798 1.75697C2.91655 1.80588 2.94142 1.87344 2.93604 1.9421L2.87159 2.74371C2.86167 2.86674 2.75873 2.96018 2.63755 2.96018C2.63116 2.96018 2.62486 2.95992 2.61847 2.95942C2.48864 2.94908 2.39224 2.83555 2.40259 2.70621L2.40261 2.70641Z" fill="black"/>
</svg>
