<svg fill="none" height="20" viewBox="0 0 20 20" width="20" xmlns="http://www.w3.org/2000/svg">
  <g clip-path="url(#clip0_3559_5681)">
    <path
      d="M9.9881 7.30847C9.28435 7.30847 8.71185 7.88785 8.71185 8.60035C8.71185 9.3091 9.28435 9.88597 9.9881 9.88597C10.6919 9.88597 11.2637 9.3066 11.2637 8.5941C11.2644 7.88535 10.6919 7.30847 9.9881 7.30847ZM10.8425 8.5941C10.8425 9.07222 10.4594 9.4616 9.9881 9.4616C9.51685 9.4616 9.1331 9.07222 9.1331 8.5941C9.1331 8.11597 9.51685 7.72722 9.9881 7.72722C10.4594 7.72722 10.8425 8.11597 10.8425 8.5941Z"
      fill="black"/>
    <path clip-rule="evenodd" d="M12.1019 12.3084V12.4022H11.68V12.3084C11.68 11.3622 10.9212 10.5928 9.98812 10.5928C9.89062 10.5928 9.78187 10.6028 9.66562 10.6228C9.28687 10.6997 8.95186 10.8978 8.69874 11.1959C8.43937 11.5128 8.29624 11.9084 8.29624 12.3084V12.4022H7.88062V12.3084C7.88062 11.8034 8.05937 11.3122 8.38312 10.9253C8.69437 10.5572 9.12249 10.3041 9.58874 10.2134C9.71624 10.1878 9.85124 10.1747 9.98812 10.1747C11.1537 10.1747 12.1019 11.1316 12.1019 12.3084Z"
          fill="black"
          fill-rule="evenodd"/>
    <path
      d="M17.1225 4.64906C16.1519 4.36843 15.1331 4.93031 14.8525 5.90093C14.7488 6.25968 14.7581 6.64031 14.8763 6.99156L13.5044 7.74843C12.9438 6.89218 12.1031 6.26968 11.1156 5.98468C11.0169 5.95593 10.9175 5.93156 10.8181 5.91031L11.0063 4.68218C11.3769 4.67218 11.7369 4.54968 12.0381 4.32843C12.8525 3.73031 13.0288 2.58031 12.43 1.76593C11.8319 0.951559 10.6819 0.775309 9.86751 1.37406C9.05314 1.97218 8.87689 3.12218 9.47564 3.93656C9.69689 4.23781 10.0038 4.46218 10.3544 4.58281L10.1644 5.82343C9.04376 5.76218 7.92751 6.14531 7.07439 6.90656L6.01626 5.88093C6.11626 5.72843 6.19314 5.56218 6.24439 5.38406C6.38001 4.91406 6.32439 4.41906 6.08751 3.99031C5.85064 3.56156 5.46189 3.25031 4.99189 3.11406C4.52251 2.97843 4.02689 3.03406 3.59814 3.27093C3.16876 3.50781 2.85814 3.89656 2.72189 4.36656C2.44126 5.33781 3.00314 6.35593 3.97376 6.63656C4.52376 6.79531 5.10251 6.69156 5.55876 6.35906L6.61501 7.38281C6.24501 7.83218 5.97501 8.34468 5.81189 8.90968C5.50939 9.95781 5.61314 11.0553 6.10314 12.0234L4.72376 12.8478C4.49251 12.5809 4.18751 12.3841 3.84689 12.2859C3.37751 12.1503 2.88189 12.2059 2.45314 12.4428C2.02376 12.6797 1.71314 13.0684 1.57689 13.5384C1.29626 14.5097 1.85814 15.5278 2.82876 15.8084C3.80001 16.0891 4.81814 15.5272 5.09876 14.5566C5.20814 14.1791 5.19251 13.7809 5.05814 13.4166L6.44376 12.5884C7.00251 13.3716 7.80939 13.9453 8.73626 14.2128C9.64939 14.4766 10.6238 14.4272 11.5044 14.0766L12.1331 15.3334C11.8706 15.5628 11.6825 15.8591 11.5844 16.1991C11.3038 17.1703 11.8656 18.1884 12.8363 18.4691C13.0044 18.5178 13.1756 18.5416 13.3463 18.5416C13.6519 18.5416 13.9544 18.4641 14.23 18.3122C14.6594 18.0753 14.97 17.6866 15.1063 17.2166C15.2419 16.7472 15.1863 16.2522 14.9494 15.8228C14.7125 15.3934 14.3238 15.0828 13.8538 14.9466C13.4713 14.8359 13.0694 14.8528 12.7006 14.9922L12.0969 13.7859C13.0456 13.2297 13.7306 12.3497 14.0381 11.2872C14.3231 10.3003 14.245 9.25656 13.82 8.32593L15.1919 7.56906C15.4256 7.85656 15.7425 8.06718 16.1019 8.17093C17.0725 8.45156 18.0913 7.88968 18.3719 6.91906C18.655 5.94781 18.0931 4.92968 17.1225 4.64906ZM9.98626 3.56093C9.79689 3.30343 9.71939 2.98718 9.76814 2.66968C9.79939 2.46593 9.88001 2.27843 10.0019 2.11968C10.07 2.03156 10.1506 1.95218 10.2425 1.88468C10.5 1.69531 10.8163 1.61781 11.1338 1.66656C11.4506 1.71531 11.7294 1.88343 11.9188 2.14093C12.31 2.67343 12.195 3.42531 11.6625 3.81718C11.13 4.20843 10.3781 4.09343 9.98626 3.56093ZM5.63564 5.20718C5.45189 5.84218 4.78564 6.20968 4.15064 6.02593C3.84376 5.93718 3.58939 5.73343 3.43439 5.45281C3.27939 5.17218 3.24314 4.84843 3.33189 4.54093C3.51564 3.90593 4.18189 3.53843 4.81689 3.72218C5.12376 3.81093 5.37814 4.01468 5.53314 4.29531C5.68814 4.57593 5.72439 4.90031 5.63564 5.20718ZM4.49126 14.3791C4.30751 15.0141 3.64189 15.3816 3.00626 15.1978C2.37126 15.0141 2.00376 14.3484 2.18751 13.7128C2.33876 13.1884 2.81939 12.8466 3.34001 12.8466C3.45001 12.8466 3.56189 12.8616 3.67251 12.8941C3.97939 12.9828 4.23376 13.1866 4.38876 13.4672C4.54376 13.7484 4.58001 14.0722 4.49126 14.3791ZM12.1963 16.3741C12.285 16.0672 12.4888 15.8128 12.7694 15.6578C12.95 15.5584 13.1481 15.5078 13.3475 15.5078C13.4588 15.5078 13.5706 15.5234 13.6806 15.5553C14.3156 15.7391 14.6831 16.4047 14.4994 17.0403C14.4106 17.3472 14.2069 17.6016 13.9263 17.7566C13.6456 17.9116 13.3219 17.9478 13.0144 17.8591C12.7075 17.7703 12.4531 17.5666 12.2981 17.2859C12.1438 17.0047 12.1075 16.6809 12.1963 16.3741ZM13.4069 11.1034C12.8525 13.0222 10.84 14.1322 8.92189 13.5778C7.00314 13.0234 5.89314 11.0109 6.44751 9.09281C6.71564 8.16468 7.33064 7.39593 8.17876 6.92843C9.02689 6.46031 10.005 6.35093 10.9331 6.61906C11.8613 6.88718 12.63 7.50218 13.0975 8.35031C13.565 9.19718 13.675 10.1753 13.4069 11.1034ZM17.765 6.74281C17.5813 7.37781 16.9156 7.74531 16.28 7.56156C15.645 7.37781 15.2775 6.71218 15.4613 6.07656C15.55 5.76968 15.7538 5.51531 16.0344 5.36031C16.215 5.26093 16.4125 5.21031 16.6125 5.21031C16.7238 5.21031 16.8356 5.22593 16.9456 5.25781C17.2525 5.34656 17.5069 5.55031 17.6619 5.83093C17.8175 6.11218 17.8538 6.43593 17.765 6.74281Z"
      fill="black"/>
  </g>
  <defs>
    <clipPath id="clip0_3559_5681">
      <rect fill="white" height="20" width="20"/>
    </clipPath>
  </defs>
</svg>
